<svg xmlns="http://www.w3.org/2000/svg" viewBox="0 0 200 250"><defs><style>.cls-1{fill:#2c6654;}.cls-2,.cls-3,.cls-4,.cls-5{fill:#284934;stroke:#284934;}.cls-10,.cls-11,.cls-14,.cls-15,.cls-2,.cls-3,.cls-4,.cls-5{stroke-miterlimit:10;}.cls-2{stroke-width:4px;}.cls-10,.cls-4{stroke-linecap:round;}.cls-10,.cls-11,.cls-4,.cls-5{stroke-width:2px;}.cls-14,.cls-15,.cls-6{fill:#b7253d;}.cls-7{fill:#212020;}.cls-8{fill:#d8d4d5;}.cls-9{fill:#eab2d5;}.cls-10{fill:none;}.cls-10,.cls-15{stroke:#212020;}.cls-11{fill:#282627;stroke:#282627;}.cls-12{fill:#f9f7f7;}.cls-13{fill:#474747;}.cls-14{stroke:#212121;}.cls-16{fill:#d34f68;}</style></defs><g id="Layer_2" data-name="Layer 2"><g id="Layer_1-2" data-name="Layer 1"><rect class="cls-1" width="200" height="250" rx="12.39"/><path class="cls-2" d="M159.62,248H24.72l12.59-71.94c0-6.58,3.35-12.52,8.73-16.7.43-.35.89-.68,1.35-1A31.62,31.62,0,0,1,65.3,153h53.9a31.53,31.53,0,0,1,18.4,5.68c5.88,4.21,9.59,10.42,9.59,17.35l12.09,70Z"/><path class="cls-3" d="M24.16,124.33h134a0,0,0,0,1,0,0v.51a38.07,38.07,0,0,1-38.07,38.07H62.23a38.07,38.07,0,0,1-38.07-38.07v-.51a0,0,0,0,1,0,0Z"/><path class="cls-3" d="M29.67,102.56h5.1a14.39,14.39,0,0,1,14.39,14.39v11.34a0,0,0,0,1,0,0H44.43A15.26,15.26,0,0,1,29.16,113v-9.95A.51.51,0,0,1,29.67,102.56Z"/><path class="cls-3" d="M34.16,110.48h0a14,14,0,0,1,14,14v1.83a0,0,0,0,1,0,0h0a14,14,0,0,1-14-14v-1.83A0,0,0,0,1,34.16,110.48Z"/><path class="cls-3" d="M149.43,102.56h4.74a0,0,0,0,1,0,0V113.9a14.39,14.39,0,0,1-14.39,14.39h-4.72a.9.9,0,0,1-.9-.9v-9.56A15.26,15.26,0,0,1,149.43,102.56Z" transform="translate(288.32 230.85) rotate(-180)"/><path class="cls-3" d="M149.16,110.48h0a0,0,0,0,1,0,0v1.83a14,14,0,0,1-14,14h0a0,0,0,0,1,0,0v-1.83A14,14,0,0,1,149.16,110.48Z" transform="translate(284.32 236.79) rotate(-180)"/><rect class="cls-3" x="43.16" y="64.96" width="97" height="87.07" rx="37.76"/><path class="cls-3" d="M141.16,98.37v15a37.19,37.19,0,0,1-.33,5c-9.05,0-17.67-29.68-27.15-31.66-20.52-3-15,5-22.52,5-7,0-1-7.92-21.82-5C60.15,88,50.77,118.39,41.49,118.39c-.1-.77-.19-1.6-.25-2.47s-.08-1.67-.08-2.51v-15A37.55,37.55,0,0,1,78.92,61H103.4A37.55,37.55,0,0,1,141.16,98.37Z"/><path class="cls-3" d="M70.16,103.91c.11-.94,3-1.53,5.43-1.34.57.05,4.67.38,5.43,2.69a1.75,1.75,0,0,1,0,1.34c-.93,1.66-6.1.69-9.5-1.34C70.25,104.5,70.14,104.13,70.16,103.91Z"/><path class="cls-3" d="M113.19,104.88c-.1-.94-3-1.54-5.43-1.34-.57,0-4.67.38-5.42,2.68a1.69,1.69,0,0,0,0,1.35c.92,1.66,6.1.69,9.49-1.35C113.1,105.47,113.22,105.1,113.19,104.88Z"/><path class="cls-4" d="M63.66,117.91a11.42,11.42,0,0,1,8.8-3,12.58,12.58,0,0,1,7.7,4.42"/><path class="cls-4" d="M118.81,118.8a11.42,11.42,0,0,0-8.8-3,12.65,12.65,0,0,0-7.7,4.42"/><rect class="cls-3" x="58.16" y="127.3" width="9" height="3.96" rx="1.97"/><rect class="cls-3" x="115.16" y="127.3" width="9" height="3.96" rx="1.97"/><path class="cls-5" d="M108.16,131.16v.53a13.27,13.27,0,0,1-4.06,9.57,13.57,13.57,0,0,1-9.5,3.85H88.72a13.64,13.64,0,0,1-9.94-4.29,13.33,13.33,0,0,1-3.62-9.13v-.53a1.89,1.89,0,0,1,1.9-1.88h29.2A1.89,1.89,0,0,1,108.16,131.16Z"/><path class="cls-3" d="M104.1,141.44a13.92,13.92,0,0,1-9.5,3.67H88.72A14,14,0,0,1,78.78,141a6.85,6.85,0,0,1,2.08-3.74,7.67,7.67,0,0,1,5.3-2.08h10.5A7.35,7.35,0,0,1,104.1,141.44Z"/><polygon class="cls-3" points="85.71 129.28 85.38 129.97 83.93 133.04 81.97 129.82 81.64 129.28 85.71 129.28"/><polygon class="cls-3" points="102.29 129.28 102.08 129.62 99.99 133.04 98.56 129.85 98.3 129.28 102.29 129.28"/><path class="cls-3" d="M73.41,78.81l-5.77,1.62A5,5,0,0,1,61.46,77h0a5,5,0,0,1,3.45-6.11l5.77-1.62a5,5,0,0,1,6.18,3.41h0A4.94,4.94,0,0,1,73.41,78.81Z"/><path class="cls-3" d="M57.89,83.17h0a3.27,3.27,0,0,1-4-2.22l-.32-1.13a3.22,3.22,0,0,1,2.25-4h0a3.26,3.26,0,0,1,4,2.22l.32,1.13A3.21,3.21,0,0,1,57.89,83.17Z"/><path class="cls-3" d="M80.66,167.37h-2c-1.21,0-2-1-2-3.16v-5.55c0-2.17.79-3.16,2-3.16h2c2,0,10,3.2,10,5.93h0C90.66,164.16,83.42,167.37,80.66,167.37Z"/><path class="cls-3" d="M102.52,167.58h2.07c1.26,0,2.07-1,2.07-3.27v-5.75c0-2.25-.81-3.28-2.07-3.28h-2.07c-2.07,0-10.36,3.32-10.36,6.15h0C92.16,164.26,99.66,167.58,102.52,167.58Z"/><rect class="cls-3" x="87.16" y="156.98" width="9.49" height="9.4" rx="3.84"/><path class="cls-3" d="M85.45,159.93l-4.55-1.75a.65.65,0,0,1-.38-.85h0a.66.66,0,0,1,.86-.37l4.55,1.75a.66.66,0,0,1,.38.85h0A.66.66,0,0,1,85.45,159.93Z"/><path class="cls-3" d="M98,159.48l4.76-1.84a.66.66,0,0,0,.38-.85l0,0a.66.66,0,0,0-.86-.37l-4.76,1.83a.66.66,0,0,0-.38.85l0,0A.67.67,0,0,0,98,159.48Z"/><path class="cls-3" d="M88.61,161.13a.4.4,0,0,1-.15,0,.51.51,0,0,1-.27-.63,3.93,3.93,0,0,1,1.37-2,3.3,3.3,0,0,1,2.18-.69.48.48,0,0,1,.42.52c0,.27-.22.51-.46.47a2.59,2.59,0,0,0-1.64.51,3,3,0,0,0-1,1.51A.44.44,0,0,1,88.61,161.13Z"/><path class="cls-6" d="M156,170.94A28,28,0,0,0,128,143H74.14a28,28,0,0,0-28,27.94L34.74,250H167.29Z"/><path class="cls-7" d="M158,170.8A30,30,0,0,0,128,141H74.14a30,30,0,0,0-30,29.8L32.72,250h4l11.37-78.77,0-.29a26,26,0,0,1,26-25.94H128a26,26,0,0,1,26,25.94v.14L165.27,250h4Z"/><path class="cls-7" d="M33,114H167a0,0,0,0,1,0,0v.93A38.07,38.07,0,0,1,128.93,153H71.07A38.07,38.07,0,0,1,33,114.93V114A0,0,0,0,1,33,114Z"/><path class="cls-8" d="M38.51,92h5.1A14.39,14.39,0,0,1,58,106.39V118a0,0,0,0,1,0,0H53.26A15.26,15.26,0,0,1,38,102.74V92.51A.51.51,0,0,1,38.51,92Z"/><path class="cls-9" d="M43,100h0a14,14,0,0,1,14,14v2a0,0,0,0,1,0,0h0a14,14,0,0,1-14-14v-2A0,0,0,0,1,43,100Z"/><path class="cls-8" d="M158.26,92H163a0,0,0,0,1,0,0v11.61A14.39,14.39,0,0,1,148.61,118H143.9a.9.9,0,0,1-.9-.9v-9.84A15.26,15.26,0,0,1,158.26,92Z" transform="translate(306 210) rotate(-180)"/><path class="cls-9" d="M158,100h0a0,0,0,0,1,0,0v2a14,14,0,0,1-14,14h0a0,0,0,0,1,0,0v-2A14,14,0,0,1,158,100Z" transform="translate(302 216) rotate(-180)"/><rect class="cls-8" x="52" y="54" width="97" height="88" rx="37.76"/><path class="cls-7" d="M150,87.76V103a38.1,38.1,0,0,1-.33,5c-9,0-17.67-30-27.15-32-20.52-3-15,5-22.52,5-7,0-1-8-21.82-5C69,77.32,59.61,108,50.33,108c-.1-.78-.19-1.62-.25-2.5S50,103.81,50,103V87.76A37.75,37.75,0,0,1,87.76,50h24.48A37.75,37.75,0,0,1,150,87.76Z"/><path class="cls-7" d="M79,93.37c.11-1,3-1.56,5.43-1.36.57,0,4.67.38,5.43,2.71a1.8,1.8,0,0,1,0,1.36c-.93,1.68-6.11.7-9.5-1.36C79.09,94,79,93.59,79,93.37Z"/><path class="cls-7" d="M122,94.34c-.11-1-3-1.55-5.43-1.35-.57,0-4.67.38-5.43,2.71a1.8,1.8,0,0,0,0,1.36c.93,1.68,6.11.7,9.5-1.36C121.94,94.93,122.05,94.57,122,94.34Z"/><path class="cls-10" d="M72.5,107.51a11.34,11.34,0,0,1,8.8-3A12.62,12.62,0,0,1,89,109"/><path class="cls-10" d="M127.65,108.41a11.34,11.34,0,0,0-8.8-3,12.65,12.65,0,0,0-7.7,4.47"/><rect class="cls-9" x="67" y="117" width="9" height="4" rx="2"/><rect class="cls-9" x="124" y="117" width="9" height="4" rx="2"/><path class="cls-11" d="M117,120.9v.54A13.57,13.57,0,0,1,103.44,135H97.56A13.55,13.55,0,0,1,84,121.44v-.54a1.9,1.9,0,0,1,1.9-1.9h29.2A1.9,1.9,0,0,1,117,120.9Z"/><path class="cls-6" d="M112.94,131.3a13.85,13.85,0,0,1-9.5,3.7H97.56a13.89,13.89,0,0,1-9.94-4.12,6.93,6.93,0,0,1,2.08-3.78A7.64,7.64,0,0,1,95,125h10.5A7.37,7.37,0,0,1,112.94,131.3Z"/><polygon class="cls-12" points="94.55 119 94.22 119.7 92.77 122.8 90.81 119.55 90.48 119 94.55 119"/><polygon class="cls-12" points="111.13 119 110.92 119.35 108.83 122.8 107.4 119.58 107.14 119 111.13 119"/><rect class="cls-13" x="70" y="59" width="16" height="10" rx="5" transform="translate(-14.49 23.69) rotate(-15.82)"/><rect class="cls-13" x="62.42" y="64.84" width="6.52" height="7.7" rx="3.26" transform="translate(-16.24 20.51) rotate(-15.82)"/><path class="cls-14" d="M89.5,157.5h-2c-1.21,0-2-1-2-3.19v-5.62c0-2.19.79-3.19,2-3.19h2c2,0,10,3.24,10,6h0C99.5,154.26,92.26,157.5,89.5,157.5Z"/><path class="cls-14" d="M111.36,157.71h2.07c1.25,0,2.07-1,2.07-3.3v-5.82c0-2.27-.82-3.3-2.07-3.3h-2.07c-2.07,0-10.36,3.35-10.36,6.21h0C101,154.36,108.5,157.71,111.36,157.71Z"/><rect class="cls-15" x="96" y="147" width="9.49" height="9.5" rx="3.84"/><rect class="cls-16" x="89.15" y="147.82" width="6.21" height="1.33" rx="0.66" transform="translate(60.14 -23.35) rotate(21.27)"/><rect class="cls-16" x="105.71" y="147.27" width="6.44" height="1.37" rx="0.66" transform="translate(264.11 246.33) rotate(158.73)"/><path class="cls-16" d="M97.44,151.19l-.14,0a.53.53,0,0,1-.28-.64,4,4,0,0,1,1.38-2,3.24,3.24,0,0,1,2.18-.69.48.48,0,0,1,.42.52c0,.28-.23.52-.46.48a2.5,2.5,0,0,0-1.64.52,3,3,0,0,0-1,1.52A.44.44,0,0,1,97.44,151.19Z"/></g></g></svg>
