<svg xmlns="http://www.w3.org/2000/svg" viewBox="0 0 200 250.02"><defs><style>.cls-1{fill:#194c7f;}.cls-2{fill:#183f66;}.cls-3{fill:#dd8237;}.cls-11,.cls-4{fill:#ce7838;}.cls-5{fill:#7c998a;}.cls-6{fill:#478e74;}.cls-7{fill:#417c64;}.cls-8{fill:#421f0b;}.cls-9{fill:#fff;}.cls-10{fill:#5f0087;}.cls-11{opacity:0.53;}.cls-12{fill:#efe2df;}.cls-13{fill:#877b7a;}.cls-14{fill:#21160e;}.cls-15{fill:#e0ced4;}.cls-16{fill:#2a7a67;}</style></defs><g id="Layer_2" data-name="Layer 2"><g id="Layer_1-2" data-name="Layer 1"><rect class="cls-1" width="200" height="250" rx="12.4"/><path class="cls-2" d="M54.29,201.64V250H49.34v0H22.91V201.64A15,15,0,0,1,35,186.9a14.5,14.5,0,0,1,3-.3h1.28a14.86,14.86,0,0,1,2.93.28,16,16,0,0,1,2.39.69,14.85,14.85,0,0,1,4.78,2.93A15.23,15.23,0,0,1,52,193.67,14.94,14.94,0,0,1,54.29,201.64Z"/><path class="cls-2" d="M162.47,201.64V250H150v0H131.1V201.64A15,15,0,0,1,140,187.93a14.19,14.19,0,0,1,3.56-1.11,15.41,15.41,0,0,1,2.46-.22h1.42a15.67,15.67,0,0,1,2.58.22A15.05,15.05,0,0,1,162.47,201.64Z"/><path class="cls-2" d="M146,191.26a18.86,18.86,0,0,0-2.46-4.44,14.19,14.19,0,0,0-3.56,1.11,19.54,19.54,0,0,0-4.65-5,19.14,19.14,0,0,0-10.59-3.85H59.57A19.12,19.12,0,0,0,52.1,181a17.77,17.77,0,0,0-2.76,1.64,19.35,19.35,0,0,0-4.78,4.94,16,16,0,0,0-2.39-.69,19.18,19.18,0,0,0-3.74,11.41V250H49.34v0h98V198.29A19.31,19.31,0,0,0,146,191.26Z"/><path class="cls-2" d="M143,198.28V250H49.34v0h-8V198.28a19.29,19.29,0,0,1,8-15.65A17.77,17.77,0,0,1,52.1,181a19.12,19.12,0,0,1,7.47-1.94q.49,0,1,0h63.18c.34,0,.66,0,1,0a19.14,19.14,0,0,1,10.59,3.85,19.54,19.54,0,0,1,4.65,5A19.11,19.11,0,0,1,143,198.28Z"/><rect class="cls-2" x="28.59" y="101.4" width="14.06" height="6.49"/><rect class="cls-2" x="28.05" y="98.7" width="8.65" height="11.9" rx="2.33"/><rect class="cls-2" x="143.6" y="101.2" width="14.06" height="6.49" transform="translate(301.27 208.89) rotate(-180)"/><rect class="cls-2" x="149.55" y="98.5" width="8.65" height="11.9" rx="2.33" transform="translate(307.76 208.89) rotate(-180)"/><path class="cls-2" d="M48.85,64.35h88.77a6.46,6.46,0,0,1,6.46,6.46v62.77a0,0,0,0,1,0,0H42.39a0,0,0,0,1,0,0V70.81A6.46,6.46,0,0,1,48.85,64.35Z"/><circle class="cls-2" cx="93.23" cy="131.42" r="50.85"/><path class="cls-2" d="M25.08,67.6h13.6A14.53,14.53,0,0,1,53.21,82.12v1.19a0,0,0,0,1,0,0H39.6A14.53,14.53,0,0,1,25.08,68.78V67.6a0,0,0,0,1,0,0Z" transform="translate(-43.65 56.19) rotate(-49.49)"/><path class="cls-2" d="M31.79,56h13.6A14.53,14.53,0,0,1,59.92,70.5v1.19a0,0,0,0,1,0,0H46.31A14.53,14.53,0,0,1,31.79,57.16V56a0,0,0,0,1,0,0Z" transform="translate(-6.24 4.98) rotate(-5.83)"/><path class="cls-2" d="M37.48,32H50.67A25.66,25.66,0,0,1,76.32,57.67v2.1a0,0,0,0,1,0,0H63.13A25.66,25.66,0,0,1,37.48,34.11V32A0,0,0,0,1,37.48,32Z" transform="translate(53.14 -27.11) rotate(48.17)"/><path class="cls-2" d="M60.2,20.69H74.95a62.39,62.39,0,0,1,62.39,62.39v5.11a0,0,0,0,1,0,0H122.59A62.39,62.39,0,0,1,60.2,25.8V20.69a0,0,0,0,1,0,0Z" transform="translate(-1.28 106.5) rotate(-56.35)"/><path class="cls-2" d="M116.9,50.46h6a25.66,25.66,0,0,1,25.66,25.66v2.1a0,0,0,0,1,0,0h-6A25.66,25.66,0,0,1,116.9,52.56v-2.1a0,0,0,0,1,0,0Z" transform="translate(10.56 -18.3) rotate(8.22)"/><path class="cls-2" d="M124,53.61h13.6a14.53,14.53,0,0,1,14.53,14.53v1.19a0,0,0,0,1,0,0h-13.6A14.53,14.53,0,0,1,124,54.8V53.61a0,0,0,0,1,0,0Z" transform="translate(289.12 60.66) rotate(155.69)"/><path class="cls-2" d="M122.44,147.11c0,14-13.32,25.42-29.75,25.42s-29.75-11.38-29.75-25.42a4.87,4.87,0,0,1,0-.54h59.46A4.87,4.87,0,0,1,122.44,147.11Z"/><rect class="cls-2" x="64.52" y="127.6" width="8.74" height="14.15" rx="4"/><path d="M69.26,128.1a3.5,3.5,0,0,1,3.5,3.5v6.14a3.5,3.5,0,0,1-3.5,3.5h-.74a3.5,3.5,0,0,1-3.5-3.5V131.6a3.5,3.5,0,0,1,3.5-3.5h.74m0-1h-.74a4.5,4.5,0,0,0-4.5,4.5v6.14a4.5,4.5,0,0,0,4.5,4.5h.74a4.5,4.5,0,0,0,4.5-4.5V131.6a4.5,4.5,0,0,0-4.5-4.5Z"/><rect class="cls-2" x="112.12" y="127.6" width="8.74" height="14.15" rx="4"/><path d="M116.86,128.1a3.5,3.5,0,0,1,3.5,3.5v6.14a3.5,3.5,0,0,1-3.5,3.5h-.74a3.5,3.5,0,0,1-3.5-3.5V131.6a3.5,3.5,0,0,1,3.5-3.5h.74m0-1h-.74a4.5,4.5,0,0,0-4.5,4.5v6.14a4.5,4.5,0,0,0,4.5,4.5h.74a4.49,4.49,0,0,0,4.5-4.5V131.6a4.49,4.49,0,0,0-4.5-4.5Z"/><path class="cls-2" d="M72.91,102.47a.49.49,0,0,1-.36-.15l-.11-.11a.5.5,0,0,1,0-.71l9.29-9.29a.49.49,0,0,1,.36-.15.49.49,0,0,1,.35.15l.11.11a.49.49,0,0,1,.15.36.49.49,0,0,1-.15.35l-9.29,9.29A.47.47,0,0,1,72.91,102.47Z"/><path d="M82.09,92.56l.11.12L72.91,102l-.12-.12,9.29-9.29h0m0-1a1,1,0,0,0-.71.29l-9.3,9.3a1,1,0,0,0,0,1.41l.12.12a1,1,0,0,0,1.41,0l9.3-9.3a1,1,0,0,0,0-1.41l-.12-.12a1,1,0,0,0-.7-.29Z"/><path class="cls-2" d="M82.52,102.54a.5.5,0,0,1-.35-.14l-9.29-9.3a.5.5,0,0,1,0-.71l.11-.11a.47.47,0,0,1,.35-.15.49.49,0,0,1,.36.15L83,101.57a.5.5,0,0,1,0,.71l-.11.12A.52.52,0,0,1,82.52,102.54Z"/><path d="M73.34,92.63h0l9.3,9.3-.12.11-9.29-9.29.11-.12h0m0-1a1,1,0,0,0-.7.29l-.12.12a1,1,0,0,0,0,1.41l9.3,9.3a1,1,0,0,0,1.41,0l.12-.12a1,1,0,0,0,0-1.41l-9.3-9.3a1,1,0,0,0-.71-.29Z"/><path class="cls-2" d="M100,102.47a.47.47,0,0,1-.35-.15l-.12-.11a.51.51,0,0,1,0-.71l9.3-9.29a.47.47,0,0,1,.35-.15.51.51,0,0,1,.36.15l.11.11a.49.49,0,0,1,.15.36.49.49,0,0,1-.15.35l-9.29,9.29A.49.49,0,0,1,100,102.47Z"/><path d="M109.13,92.56h0l.12.12L100,102l-.11-.12,9.29-9.29h0m0-1a1,1,0,0,0-.71.29l-9.29,9.3a1,1,0,0,0,0,1.41l.11.12a1,1,0,0,0,.71.29,1,1,0,0,0,.71-.29l9.29-9.3A1,1,0,0,0,110,92l-.11-.12a1,1,0,0,0-.71-.29Z"/><path class="cls-2" d="M109.57,102.54a.5.5,0,0,1-.35-.14l-9.3-9.3a.5.5,0,0,1,0-.71l.12-.11a.48.48,0,0,1,.7,0l9.3,9.29a.52.52,0,0,1,.14.36.5.5,0,0,1-.14.35l-.12.12A.5.5,0,0,1,109.57,102.54Z"/><path d="M100.39,92.63h0l9.29,9.3-.11.11-9.3-9.29.12-.12h0m0-1a1,1,0,0,0-.71.29l-.11.12a1,1,0,0,0,0,1.41l9.29,9.3a1,1,0,0,0,.71.29,1,1,0,0,0,.71-.29l.11-.12a1,1,0,0,0,0-1.41l-9.29-9.3a1,1,0,0,0-.71-.29Z"/><path class="cls-2" d="M125.92,102.47a.49.49,0,0,1-.36-.15l-.11-.11a.5.5,0,0,1,0-.71l9.29-9.29a.49.49,0,0,1,.36-.15.49.49,0,0,1,.35.15l.11.11a.49.49,0,0,1,.15.36.49.49,0,0,1-.15.35l-9.29,9.29A.49.49,0,0,1,125.92,102.47Z"/><path d="M135.1,92.56h0l.11.12L125.92,102l-.12-.12,9.29-9.29h0m0-1a1,1,0,0,0-.71.29l-9.3,9.3a1,1,0,0,0,0,1.41l.12.12a1,1,0,0,0,1.41,0l9.3-9.3a1,1,0,0,0,0-1.41l-.12-.12a1,1,0,0,0-.7-.29Z"/><path class="cls-2" d="M135.53,102.54a.5.5,0,0,1-.35-.14l-9.3-9.3a.51.51,0,0,1,0-.71l.12-.11a.47.47,0,0,1,.35-.15.49.49,0,0,1,.36.15l9.29,9.29a.49.49,0,0,1,.15.36.47.47,0,0,1-.15.35l-.12.12A.48.48,0,0,1,135.53,102.54Z"/><path d="M126.35,92.63h0l9.3,9.3-.12.11-9.29-9.29.11-.12h0m0-1a1,1,0,0,0-.7.29l-.12.12a1,1,0,0,0,0,1.41l9.3,9.3a1,1,0,0,0,.7.29,1,1,0,0,0,.71-.29l.12-.12a1,1,0,0,0,0-1.41l-9.3-9.3a1,1,0,0,0-.71-.29Z"/><rect class="cls-2" x="56.45" y="119.52" width="20.55" height="5.41" rx="2.5" transform="translate(-24.24 16.79) rotate(-12.15)"/><rect class="cls-2" x="107.44" y="119.03" width="20.55" height="5.41" rx="2.5" transform="translate(207.16 265.52) rotate(-167.85)"/><path class="cls-3" d="M64,185.91V250H35V185.91A13.91,13.91,0,0,1,48.91,172h1.18a14.15,14.15,0,0,1,2.71.26,14.78,14.78,0,0,1,2.21.64A13.92,13.92,0,0,1,62.17,179a0,0,0,0,1,0,0A13.75,13.75,0,0,1,64,185.91Z"/><path class="cls-3" d="M164,185.91V250H135V185.91a13.55,13.55,0,0,1,.33-3,13.89,13.89,0,0,1,7.88-9.67,13.11,13.11,0,0,1,3.29-1,13.67,13.67,0,0,1,2.41-.21h1.18A13.91,13.91,0,0,1,164,185.91Z"/><path class="cls-4" d="M150,182.81V250H49.34V182.63a17.75,17.75,0,0,1,3.46-10.37,14.78,14.78,0,0,1,2.21.64,17.08,17.08,0,0,1,1.27-1.67c.18-.22.38-.43.57-.64s.43-.44.65-.65l.29-.27c.32-.3.66-.59,1-.85s.52-.4.79-.59.54-.37.82-.54l.11-.07.54-.32c.18-.11.37-.21.56-.31l.54-.26.72-.33a14.56,14.56,0,0,1,1.56-.57l.33-.1c.29-.09.59-.17.89-.24l.91-.19.48-.08c.28-.05.55-.09.83-.12s.67-.06,1-.08h60.24a17.71,17.71,0,0,1,2.07.23l.52.1a2.84,2.84,0,0,1,.31.06q1,.22,1.92.54c.23.07.46.16.68.25s.45.17.68.27l.37.17c.46.21.9.44,1.34.69l.44.26.69.44c.29.19.57.4.84.6a18,18,0,0,1,1.48,1.27l.29.29c.23.22.46.46.67.7a6,6,0,0,1,.46.54c.17.2.34.41.5.62a13.89,13.89,0,0,1,.83,1.18,13.11,13.11,0,0,1,3.29-1A17.71,17.71,0,0,1,150,182.81Z"/><path class="cls-3" d="M146,182.8V250H52V182.8a17.69,17.69,0,0,1,3-9.9,17.08,17.08,0,0,1,1.27-1.67c.18-.22.38-.43.57-.64l.07-.07c.19-.2.38-.39.58-.58l.29-.27c.32-.3.66-.59,1-.85s.52-.4.79-.59.54-.37.82-.54l.11-.07.54-.32c.18-.11.37-.21.56-.31l.54-.26.72-.33q.42-.18.84-.33t.72-.24l.33-.1c.29-.09.59-.17.89-.24l.91-.19.48-.08c.28-.05.55-.09.83-.12s.67-.06,1-.08l.92,0h58.4l.92,0a17.71,17.71,0,0,1,2.07.23l.52.1a2.84,2.84,0,0,1,.31.06,15.11,15.11,0,0,1,1.92.54,2.3,2.3,0,0,1,.34.12l.34.13c.23.08.45.17.68.27l.37.17a17.58,17.58,0,0,1,2.47,1.39c.29.19.57.4.84.6a18,18,0,0,1,1.48,1.27l.29.29c.24.23.46.46.68.71h0a5.32,5.32,0,0,1,.38.45.13.13,0,0,1,.06.07c.12.14.24.28.35.43s.29.37.42.56.38.53.56.81A17.65,17.65,0,0,1,146,182.8Z"/><path class="cls-4" d="M116.56,165h9.69l0,0a47.07,47.07,0,0,1-52.44,0l0,0h9.69a47,47,0,0,1-30.37-41.5,47,47,0,0,1,93.86,0A47,47,0,0,1,116.56,165Z"/><rect class="cls-5" x="40.25" y="93.25" width="13" height="6"/><rect class="cls-5" x="39.75" y="90.75" width="8" height="11" rx="2.33"/><rect class="cls-5" x="146.56" y="93.06" width="13" height="6" transform="translate(306.12 192.13) rotate(-180)"/><rect class="cls-5" x="152.06" y="90.56" width="8" height="11" rx="2.33" transform="translate(312.12 192.13) rotate(-180)"/><path class="cls-6" d="M147,65.46V123H53V65.46a2,2,0,0,1,0-.35A6.46,6.46,0,0,1,59.46,59h81.08a6.4,6.4,0,0,1,3.13.81,6.31,6.31,0,0,1,2.43,2.38A6.22,6.22,0,0,1,147,65.3h0A.76.76,0,0,1,147,65.46Z"/><path class="cls-6" d="M147,121c0,.84,0,1.67-.07,2.5A47,47,0,0,1,116.56,165l-.06,0a47.17,47.17,0,0,1-33,0l-.06,0a47,47,0,0,1-30.37-41.5c0-.83-.07-1.66-.07-2.5a47,47,0,0,1,94,0Z"/><path class="cls-7" d="M63.76,69.71l-.53.62-.33.39h0l-6.58,7.71A14.43,14.43,0,0,1,53,81.29V75.81a14.54,14.54,0,0,1-14,.56l4.32-5.05a14.58,14.58,0,0,1,4.23-3.4h0a14.66,14.66,0,0,1,12.09-.7,12,12,0,0,1,1.22.55A14.18,14.18,0,0,1,63.76,69.71Z"/><path class="cls-7" d="M69.67,70l-5.88.6-.9.09-4.63.48-.39,0a14.41,14.41,0,0,1-10.36-3.31,14,14,0,0,1-2.95-3.34,14.12,14.12,0,0,1,3.16-2.27A14.31,14.31,0,0,1,44.2,58l9.55-1a14.92,14.92,0,0,1,4.83.3,14.57,14.57,0,0,1,3.25,1.21,14.48,14.48,0,0,1,6.18,6,13.76,13.76,0,0,1,1.19,3,10,10,0,0,1,.27,1.11C69.56,69.13,69.62,69.58,69.67,70Z"/><path class="cls-7" d="M75.68,59a25.16,25.16,0,0,1-5.52,9c-.22.24-.45.48-.69.71s-.55.53-.84.79l-3.39-3.79L64.59,65h0l-.69-.77-.48-.54-.82-.91-.8-.9c-.42-.47-.81-.94-1.18-1.43s-.7-.93-1-1.41-.7-1.08-1-1.64a25.33,25.33,0,0,1-2.46-6,14,14,0,0,1,2.67.37,25.45,25.45,0,0,1-3.26-10.82A25.57,25.57,0,0,1,63.8,25.61l6.83,7.64a25.43,25.43,0,0,1,5.12,8.68,24.38,24.38,0,0,1,1.12,4.51q.16,1,.24,2A25.67,25.67,0,0,1,75.68,59Z"/><path class="cls-7" d="M142.85,49.05a14.44,14.44,0,0,1,3.53.41l-.68,1c-.73,1.09-1.48,2.15-2.26,3.18-.26.34-.52.68-.79,1-.57.73-1.16,1.44-1.77,2.14s-1.3,1.48-2,2.19Q137,61,135,62.78T131.05,66l-.32.25c-.9.66-1.82,1.29-2.75,1.9a62.41,62.41,0,0,1-64.19,2.53h0l-.55-.3c-1-.58-2-1.18-3-1.82l-1-.66.42-.63,1.25-1.88,1-1.53.57-.85.14-.22,1.54-2.31.18-.26c.17-.26.34-.52.53-.77s.18-.27.27-.4c.53-.75,1.08-1.49,1.63-2.21A62.1,62.1,0,0,1,76.87,46.44l.48-.38h0a62.42,62.42,0,0,1,70.81-4.57l-2.26,3.39Q144.46,47,142.85,49.05Z"/><path class="cls-7" d="M149.13,73.78,147,73.47v5.64l-1.62-.23A25.53,25.53,0,0,1,128,68.1,24.69,24.69,0,0,1,125.67,64,25.07,25.07,0,0,1,124,59a25.38,25.38,0,0,1-.33-9.18h0l3.54.51A25.7,25.7,0,0,1,138,54.51h0c.32.22.64.45.95.69a24.71,24.71,0,0,1,1.94,1.61,26.37,26.37,0,0,1,2.79,3,25.32,25.32,0,0,1,1.83,2.64A25.73,25.73,0,0,1,147,65.3h0c.25.55.48,1.12.69,1.69A25.22,25.22,0,0,1,149.13,73.78Z"/><path class="cls-7" d="M147.88,61.39a24.94,24.94,0,0,1,1.25,5l-1.45.66-.68.3-1.41.64a14.54,14.54,0,0,1-12.86-.44h0a15.28,15.28,0,0,1-2-1.29,13.84,13.84,0,0,1-3.13-3.34,14.07,14.07,0,0,1-1.23-2.18l.52-.24,2.57-1.16.63-.28,6.07-2.74.66-.3a13.47,13.47,0,0,1,2.12-.76,14,14,0,0,1,3.71-.53,12.83,12.83,0,0,1,1.65.09A14.45,14.45,0,0,1,153.14,59Z"/><path class="cls-8" d="M64,64.1l-.08.09-.45.53-.34.39-2.27,2.66-.63.74-2.33,2.72-1.36,1.59a14.38,14.38,0,0,1-3.51,3,14.56,14.56,0,0,1-17-1.38l7.46-8.73a14.71,14.71,0,0,1,4.23-3.39,14.63,14.63,0,0,1,12.09-.7A14.31,14.31,0,0,1,62.45,63a10.56,10.56,0,0,1,1,.69C63.6,63.79,63.79,63.94,64,64.1Z"/><path class="cls-8" d="M69.87,64.42,68,64.61,64.59,65h0L64,65h0l-.88.09-2.24.23-2.4.25a14.49,14.49,0,0,1-10.74-3.28,14.49,14.49,0,0,1-5.19-9.7L54,51.45a14.34,14.34,0,0,1,2.17-.06,14,14,0,0,1,2.67.37,14.63,14.63,0,0,1,5.72,2.79,15.23,15.23,0,0,1,2.23,2.24A13.91,13.91,0,0,1,68.21,59a14.07,14.07,0,0,1,1.46,4.08C69.76,63.52,69.82,64,69.87,64.42Z"/><path class="cls-8" d="M77.35,46.05h0c0,.81-.12,1.62-.24,2.42A25.51,25.51,0,0,1,73.05,59a25,25,0,0,1-3.38,4.08c-.27.27-.55.53-.84.79l-4-4.47-.36-.4-1.69-1.88L62,56.23a25.85,25.85,0,0,1-3.21-4.47A25.69,25.69,0,0,1,64,20l6.84,7.64a25.83,25.83,0,0,1,6.51,18.41Z"/><path class="cls-8" d="M150.85,37.44l-2.69,4-2.26,3.39q-1.44,2.18-3.05,4.18c-.57.73-1.16,1.45-1.77,2.15-1,1.15-2,2.26-3.09,3.31-.6.61-1.21,1.19-1.83,1.75-1,1-2.1,1.88-3.19,2.74-.67.55-1.35,1.07-2,1.58-.91.66-1.83,1.3-2.76,1.9-.19.14-.38.26-.57.38-.64.41-1.28.8-1.93,1.18A62.47,62.47,0,0,1,70.16,68l-1-.4c-1.33-.58-2.65-1.2-4-1.88h0c-.42-.21-.84-.44-1.25-.67h0l-.54-.3c-.52-.29-1-.6-1.56-.91-.84-.5-1.67-1-2.49-1.57l.42-.63.8-1.2L61.54,59l.29-.43,1-1.45,1.54-2.31.18-.26A62,62,0,0,1,75.75,41.93c.43-.38.87-.75,1.32-1.1A62.43,62.43,0,0,1,150.85,37.44Z"/><path class="cls-8" d="M149.14,73.78h0L147,73.47l-1.42-.21a25.48,25.48,0,0,1-12.85-5.76h0c-.58-.49-1.13-1-1.66-1.54a24.45,24.45,0,0,1-2.88-3.47,21.73,21.73,0,0,1-1.28-2c-.27-.47-.53-.95-.76-1.44a25.42,25.42,0,0,1-2.46-9.18,25.85,25.85,0,0,1,.19-5.61l3.55.51a25.6,25.6,0,0,1,11.73,4.86,21.34,21.34,0,0,1,1.94,1.62,24.94,24.94,0,0,1,2.36,2.46c.3.36.59.72.86,1.1a25.29,25.29,0,0,1,3.58,6.63,24.94,24.94,0,0,1,1.25,5A25.4,25.4,0,0,1,149.14,73.78Z"/><path class="cls-8" d="M156.24,57.6l-3.1,1.4-5.26,2.39-1.78.8-.31.14c-.1,0-.19.09-.29.12a14.5,14.5,0,0,1-14.57-1.87,12.1,12.1,0,0,1-1.47-1.3,3.5,3.5,0,0,1-.27-.28,14.43,14.43,0,0,1-2.62-3.93L133.34,52,137,50.35a15.28,15.28,0,0,1,2.11-.77,14.54,14.54,0,0,1,17.1,8Z"/><path class="cls-9" d="M127,138.44C127,149.79,114.69,159,99.5,159S72,149.79,72,138.44a3.24,3.24,0,0,1,0-.44h55A3.24,3.24,0,0,1,127,138.44Z"/><path d="M77.5,130.5a4,4,0,0,1-4-4v-5a4,4,0,0,1,8,0v5A4,4,0,0,1,77.5,130.5Z"/><path d="M77.5,118a3.5,3.5,0,0,1,3.5,3.5v5a3.5,3.5,0,0,1-7,0v-5a3.5,3.5,0,0,1,3.5-3.5m0-1a4.49,4.49,0,0,0-4.5,4.5v5a4.5,4.5,0,0,0,9,0v-5a4.49,4.49,0,0,0-4.5-4.5Z"/><path d="M121.5,130.5a4,4,0,0,1-4-4v-5a4,4,0,0,1,8,0v5A4,4,0,0,1,121.5,130.5Z"/><path d="M121.5,118a3.5,3.5,0,0,1,3.5,3.5v5a3.5,3.5,0,0,1-7,0v-5a3.5,3.5,0,0,1,3.5-3.5m0-1a4.49,4.49,0,0,0-4.5,4.5v5a4.5,4.5,0,0,0,9,0v-5a4.49,4.49,0,0,0-4.5-4.5Z"/><path class="cls-10" d="M59.76,93.74a.52.52,0,0,1-.36-.14.51.51,0,0,1,0-.71l8.49-8.49a.5.5,0,0,1,.35-.14.52.52,0,0,1,.36.14.51.51,0,0,1,0,.71L60.11,93.6A.5.5,0,0,1,59.76,93.74Z"/><path d="M68.24,84.76h0l-8.48,8.48,8.48-8.48h0m0-1a1,1,0,0,0-.7.29l-8.49,8.49a1,1,0,0,0,0,1.41,1,1,0,0,0,.71.29,1,1,0,0,0,.7-.29L69,85.46a1,1,0,0,0,0-1.41,1,1,0,0,0-.71-.29Z"/><path class="cls-10" d="M68.65,93.81a.49.49,0,0,1-.36-.15l-8.48-8.48a.5.5,0,0,1,0-.71.51.51,0,0,1,.35-.15.53.53,0,0,1,.36.15L69,93a.48.48,0,0,1,0,.7A.47.47,0,0,1,68.65,93.81Z"/><path d="M60.16,84.82l8.49,8.49-8.49-8.49h0m0-1a1,1,0,0,0-.71.3,1,1,0,0,0,0,1.41L67.94,94a1,1,0,0,0,.71.29,1,1,0,0,0,.7-1.71l-8.48-8.48a1,1,0,0,0-.71-.3Z"/><path class="cls-10" d="M81.21,94.17a.47.47,0,0,1-.35-.15.5.5,0,0,1,0-.71l8.48-8.48a.49.49,0,0,1,.36-.15.47.47,0,0,1,.35.15.5.5,0,0,1,0,.71L81.56,94A.47.47,0,0,1,81.21,94.17Z"/><path d="M89.7,85.18h0l-8.49,8.49,8.49-8.49h0m0-1a1,1,0,0,0-.71.3L80.5,93a1,1,0,0,0,0,1.41,1,1,0,0,0,.71.3,1,1,0,0,0,.71-.3l8.48-8.48a1,1,0,0,0,0-1.41,1,1,0,0,0-.7-.3Z"/><path class="cls-10" d="M90.1,94.23a.5.5,0,0,1-.35-.14L81.26,85.6a.51.51,0,0,1,0-.7.49.49,0,0,1,.36-.15.49.49,0,0,1,.35.15l8.48,8.48a.5.5,0,0,1-.35.85Z"/><path d="M81.62,85.25l8.48,8.48-8.49-8.48h0m0-1A1,1,0,0,0,80.91,86l8.48,8.48a1,1,0,0,0,.71.29,1,1,0,0,0,.71-.29,1,1,0,0,0,0-1.41l-8.49-8.49a1,1,0,0,0-.7-.29Z"/><path class="cls-10" d="M106.21,94.17a.47.47,0,0,1-.35-.15.5.5,0,0,1,0-.71l8.48-8.48a.49.49,0,0,1,.36-.15.47.47,0,0,1,.35.15.5.5,0,0,1,0,.71L106.56,94A.47.47,0,0,1,106.21,94.17Z"/><path d="M114.7,85.18h0l-8.49,8.49,8.49-8.49h0m0-1a1,1,0,0,0-.71.3L105.5,93a1,1,0,0,0,0,1.41,1,1,0,0,0,.71.3,1,1,0,0,0,.71-.3l8.48-8.48a1,1,0,0,0,0-1.41,1,1,0,0,0-.7-.3Z"/><path class="cls-10" d="M115.1,94.23a.5.5,0,0,1-.35-.14l-8.49-8.49a.51.51,0,0,1,0-.7.49.49,0,0,1,.36-.15.49.49,0,0,1,.35.15l8.48,8.48a.5.5,0,0,1-.35.85Z"/><path d="M106.62,85.25l8.48,8.48-8.49-8.48h0m0-1a1,1,0,0,0-.71,1.71l8.48,8.48a1,1,0,0,0,.71.29,1,1,0,0,0,.71-.29,1,1,0,0,0,0-1.41l-8.49-8.49a1,1,0,0,0-.7-.29Z"/><path class="cls-10" d="M130.21,94.17a.47.47,0,0,1-.35-.15.5.5,0,0,1,0-.71l8.48-8.48a.49.49,0,0,1,.36-.15.47.47,0,0,1,.35.15.5.5,0,0,1,0,.71L130.56,94A.47.47,0,0,1,130.21,94.17Z"/><path d="M138.7,85.18h0l-8.49,8.49,8.49-8.49h0m0-1a1,1,0,0,0-.71.3L129.5,93a1,1,0,0,0,0,1.41,1,1,0,0,0,.71.3,1,1,0,0,0,.71-.3l8.48-8.48a1,1,0,0,0,0-1.41,1,1,0,0,0-.7-.3Z"/><path class="cls-10" d="M139.1,94.23a.5.5,0,0,1-.35-.14l-8.49-8.49a.51.51,0,0,1,0-.7.49.49,0,0,1,.36-.15.49.49,0,0,1,.35.15l8.48,8.48a.5.5,0,0,1-.35.85Z"/><path d="M130.62,85.25l8.48,8.48-8.49-8.48h0m0-1a1,1,0,0,0-.71,1.71l8.48,8.48a1,1,0,0,0,.71.29,1,1,0,0,0,.71-.29,1,1,0,0,0,0-1.41l-8.49-8.49a1,1,0,0,0-.7-.29Z"/><rect class="cls-8" x="66" y="110" width="19" height="5" rx="2.5" transform="translate(-21.99 18.42) rotate(-12.15)"/><rect class="cls-8" x="113.13" y="109.54" width="19" height="5" rx="2.5" transform="translate(218.92 247.4) rotate(-167.85)"/><rect class="cls-11" x="69" y="193" width="61" height="40"/><rect class="cls-12" x="70" y="192" width="61" height="40"/><path class="cls-13" d="M75.6,187.4c-.39-.38-1.19-.66-2.82.15a16.08,16.08,0,0,0-6.23,6.23c-.81,1.63-.53,2.43-.15,2.82a1.4,1.4,0,0,0,1,.37,4.17,4.17,0,0,0,1.8-.52A13.92,13.92,0,0,0,72.53,194H71a11.58,11.58,0,0,1-2.26,1.55c-1.06.53-1.55.45-1.67.34s-.19-.61.34-1.67a15.18,15.18,0,0,1,5.77-5.77,3.18,3.18,0,0,1,1.35-.42.52.52,0,0,1,.32.08c.11.12.19.61-.34,1.67A11.66,11.66,0,0,1,73,192h1.28a11.35,11.35,0,0,0,1.13-1.78,4.21,4.21,0,0,0,.52-1.8A1.4,1.4,0,0,0,75.6,187.4Z"/><path class="cls-13" d="M125.08,188.42a4.21,4.21,0,0,0,.52,1.8,11.35,11.35,0,0,0,1.13,1.78H128a11.66,11.66,0,0,1-1.51-2.22c-.53-1.06-.45-1.55-.34-1.67a.52.52,0,0,1,.32-.08,3.18,3.18,0,0,1,1.35.42,15.18,15.18,0,0,1,5.77,5.77c.53,1.06.45,1.55.34,1.67s-.61.19-1.67-.34A11.58,11.58,0,0,1,130,194h-1.49a13.92,13.92,0,0,0,3.31,2.45,4.17,4.17,0,0,0,1.8.52,1.4,1.4,0,0,0,1-.37c.38-.39.66-1.19-.15-2.82a16.08,16.08,0,0,0-6.23-6.23c-1.63-.81-2.43-.53-2.82-.15A1.4,1.4,0,0,0,125.08,188.42Z"/><path class="cls-14" d="M81.35,222.08v-10.4h-1.9v-2.94h5.36v13.34Z"/><path class="cls-14" d="M98.59,215.42a7.25,7.25,0,0,1-2,5.44,5.21,5.21,0,0,1-7.36,0,8.49,8.49,0,0,1,0-10.9,5.21,5.21,0,0,1,7.36,0A7.32,7.32,0,0,1,98.59,215.42Zm-5.66-3.88a1.53,1.53,0,0,0-1.06.42,3.27,3.27,0,0,0-.84,1.47,6.9,6.9,0,0,0-.32,2,7.16,7.16,0,0,0,.31,1.95,3.26,3.26,0,0,0,.85,1.53,1.53,1.53,0,0,0,1.06.42,1.51,1.51,0,0,0,1.06-.42,3.13,3.13,0,0,0,.84-1.49,6.38,6.38,0,0,0,.32-2,6.79,6.79,0,0,0-.33-2A3.28,3.28,0,0,0,94,212,1.51,1.51,0,0,0,92.93,211.54Z"/><path class="cls-14" d="M110.15,219.14v2.94H99.45l3.38-3.54a20.61,20.61,0,0,0,2.74-3.38,3.89,3.89,0,0,0,.72-2.08,1.84,1.84,0,0,0-.4-1.28,1.26,1.26,0,0,0-1-.4,1.39,1.39,0,0,0-1.16.54,2.85,2.85,0,0,0-.48,1.64H99.69a5,5,0,0,1,5.26-5.14,5.08,5.08,0,0,1,3.76,1.38,4.44,4.44,0,0,1,1.3,3.28,5.36,5.36,0,0,1-2,4l-2.24,2.08Z"/><path class="cls-14" d="M120.81,208.74v8.16h1.62v2.66h-1.62v2.52h-3.2v-2.52h-6.46v-2.22l5.14-8.6Zm-6.34,8.16h3.14v-5.44Z"/><path class="cls-14" d="M71.81,201.3l.59-1.12a1.73,1.73,0,0,0,1.22.55.67.67,0,0,0,.54-.19.44.44,0,0,0,.13-.33.39.39,0,0,0-.15-.32,2,2,0,0,0-.69-.28l-.36-.11a1.69,1.69,0,0,1-.76-.44,1.3,1.3,0,0,1-.31-.94,1.74,1.74,0,0,1,.49-1.29,1.88,1.88,0,0,1,1.37-.5,3.5,3.5,0,0,1,1.65.43L75,197.84a1.44,1.44,0,0,0-.91-.36.61.61,0,0,0-.45.16.42.42,0,0,0-.14.29.4.4,0,0,0,.07.24,1,1,0,0,0,.47.24l.42.13a2.14,2.14,0,0,1,1,.52,1.36,1.36,0,0,1,.34,1,1.83,1.83,0,0,1-.5,1.34,2.15,2.15,0,0,1-1.58.54,3.21,3.21,0,0,1-1-.17A3.29,3.29,0,0,1,71.81,201.3Z"/><path class="cls-14" d="M79.77,197.62H78.62v4.16H77.24v-4.16H76.11v-1.17h3.66Z"/><path class="cls-14" d="M83.73,201.78l-.33-.89H81.46l-.36.89H79.64l2-5.33H83.2l2,5.33Zm-1.88-1.95H83l-.6-1.73Z"/><path class="cls-14" d="M85.82,196.45H88a1.72,1.72,0,0,1,1.31.47,1.65,1.65,0,0,1,.45,1.2,1.47,1.47,0,0,1-.42,1.11,1.45,1.45,0,0,1-.74.37l1.67,2.18H88.53l-1.32-2v2H85.82Zm1.39,1.07v1.32h.26a.9.9,0,0,0,.67-.22.57.57,0,0,0,.18-.44.55.55,0,0,0-.19-.45.89.89,0,0,0-.66-.21Z"/><path class="cls-14" d="M93.8,197.62H92.65v4.16H91.26v-4.16H90.13v-1.17H93.8Z"/><path class="cls-14" d="M95.79,201.78H94.41v-5.33h1.38l2.55,3.26v-3.26h1.39v5.33H98.34l-2.55-3.26Z"/><path class="cls-14" d="M100.85,196.45h1.38v3.16a1.09,1.09,0,0,0,.27.82.93.93,0,0,0,.66.26.95.95,0,0,0,.94-.87,3,3,0,0,0,0-.33v-3h1.38v3.06a4.8,4.8,0,0,1,0,.58,2.16,2.16,0,0,1-.16.55,1.87,1.87,0,0,1-.42.6,2.35,2.35,0,0,1-1.76.66,2.29,2.29,0,0,1-1.76-.64,2.51,2.51,0,0,1-.52-1.75Z"/><path class="cls-14" d="M107.75,201.78h-1.38l.91-5.33h1.37l1.08,2.84,1.14-2.84h1.38l.8,5.33h-1.38l-.39-3.07L110,201.78h-.55l-1.23-3.07Z"/><path class="cls-14" d="M115.07,201.78h-1.38l.91-5.33H116l1.08,2.84,1.14-2.84h1.38l.8,5.33H119l-.39-3.07-1.29,3.07h-.55l-1.23-3.07Z"/><path class="cls-14" d="M124.29,196.45v1.17h-1.65v.89h1.56v1.18h-1.56v.92h1.65v1.17h-3v-5.33Z"/><path class="cls-14" d="M125.17,196.45h2.16a1.7,1.7,0,0,1,1.3.47,1.66,1.66,0,0,1,.46,1.2,1.48,1.48,0,0,1-.43,1.11,1.45,1.45,0,0,1-.73.37l1.67,2.18h-1.72l-1.33-2v2h-1.38Zm1.38,1.07v1.32h.26a.93.93,0,0,0,.68-.22.6.6,0,0,0,.17-.44.58.58,0,0,0-.18-.45.91.91,0,0,0-.67-.21Z"/><circle class="cls-15" cx="74" cy="121" r="2"/><circle class="cls-15" cx="118" cy="121" r="2"/><rect class="cls-16" x="65" y="131" width="9" height="5" rx="2.5"/><rect class="cls-16" x="125" y="131" width="9" height="5" rx="2.5"/></g></g></svg>