<svg xmlns="http://www.w3.org/2000/svg" viewBox="0 0 200 250"><defs><style>.cls-1{fill:#c41e46;}.cls-2{opacity:0.4;}.cls-3{fill:#7f1332;}.cls-4{fill:#efebea;}.cls-5{fill:#bcaba7;}.cls-6{fill:#564f4e;}.cls-7{fill:#3d3939;}</style></defs><g id="Layer_2" data-name="Layer 2"><g id="Layer_1-2" data-name="Layer 1"><rect class="cls-1" width="200" height="250" rx="12.31"/><g class="cls-2"><path class="cls-3" d="M47.18,103.84v94.1a8,8,0,0,0,8,8h5.33a8,8,0,0,0,7.85-6.41h0a8.22,8.22,0,0,0,.15-1.58,8,8,0,0,1,15.67-2.28,7.81,7.81,0,0,1,.33,2.28V204a8,8,0,0,0,8,8h5.34a8,8,0,0,0,8-8v-6.09a7.81,7.81,0,0,1,.33-2.28,8,8,0,0,1,15.67,2.28,8.49,8.49,0,0,0,.05.88,8,8,0,0,0,7.95,7.12h5.33a8,8,0,0,0,8-8v-94.1a48,48,0,0,0-96,0Z"/><rect class="cls-3" x="47.18" y="215.84" width="19" height="28" rx="8.11"/><path class="cls-3" d="M105.5,235v10.78a8,8,0,0,1-1.22,4.27H88.4a8,8,0,0,1-1.22-4.27V235a8.11,8.11,0,0,1,8.11-8.11h2.1A8.11,8.11,0,0,1,105.5,235Z"/><rect class="cls-3" x="125.85" y="220.58" width="16.33" height="24.07" rx="8.11"/></g><path class="cls-4" d="M53.2,84.8v93.69a8,8,0,0,0,8,8h5.31a8,8,0,0,0,7.81-6.38h0a8.22,8.22,0,0,0,.15-1.58,8,8,0,0,1,15.61-2.27,7.79,7.79,0,0,1,.33,2.27v6.07a8,8,0,0,0,8,8h5.32a8,8,0,0,0,8-8v-6.07a7.79,7.79,0,0,1,.33-2.27,8,8,0,0,1,15.61,2.27,8.49,8.49,0,0,0,0,.88,8,8,0,0,0,7.91,7.09h5.31a8,8,0,0,0,8-8V84.8a47.8,47.8,0,0,0-95.6,0Z"/><rect class="cls-4" x="53" y="197" width="19" height="28" rx="8.11"/><rect class="cls-4" x="93" y="208" width="18.32" height="27" rx="8.11"/><rect class="cls-4" x="131.54" y="201.03" width="16.26" height="23.97" rx="8.11"/><path class="cls-5" d="M90,144.64V177a7.58,7.58,0,0,0-2-3.23,8.26,8.26,0,0,0-11.31,0,7.48,7.48,0,0,0-2.35,5.41,7.73,7.73,0,0,1,0,.84,7.47,7.47,0,0,1-.28-2V144.64a8,8,0,0,1,16,0Z"/><path class="cls-5" d="M128,145.66v33.41a7.09,7.09,0,0,1-.18,1.61,7.58,7.58,0,0,1-.15-1.51,7.5,7.5,0,0,0-2.35-5.43,8.15,8.15,0,0,0-5.65-2.24A8,8,0,0,0,112,177V145.66a8,8,0,0,1,16,0Z"/><path class="cls-6" d="M133,72.63a17.54,17.54,0,0,1-1.05,5.17,4.3,4.3,0,0,1-.4.74c-.82,1.23-2,1.68-4,2.71-4.61,2.45-13.25-.87-15.82-6.91a9.29,9.29,0,0,1-.39-1.12,3.45,3.45,0,0,1-.12-.46c-1.59-7.06-1-13.84,4.61-13.28S133.76,64.62,133,72.63Z"/><path class="cls-6" d="M110.89,99.35a15.85,15.85,0,0,1-.22,2.67,9.1,9.1,0,0,1-9.37,8c-4,0-8.93-2.18-10.28-7.58a12.18,12.18,0,0,1-.37-3.07c0-7.65,5.94-17,10.65-17S110.89,91.7,110.89,99.35Z"/><path class="cls-7" d="M131.94,77.53l0,.27a4.3,4.3,0,0,1-.4.74c-.82,1.23-2,1.68-4,2.71-4.61,2.45-13.25-.87-15.82-6.91a9.29,9.29,0,0,1-.39-1.12c-.31-4.59.92-8.14,4.88-7.75C121.37,66,132.67,70.18,131.94,77.53Z"/><path class="cls-6" d="M70.5,73.11a17.54,17.54,0,0,0,1,5.17A4.3,4.3,0,0,0,72,79c.82,1.23,2,1.68,4,2.71,4.61,2.45,13.25-.87,15.82-6.91a9.29,9.29,0,0,0,.39-1.12,3.45,3.45,0,0,0,.12-.46c1.59-7.06,1-13.84-4.61-13.28S69.7,65.1,70.5,73.11Z"/><path class="cls-7" d="M71.52,78l0,.27A4.3,4.3,0,0,0,72,79c.82,1.23,2,1.68,4,2.71,4.61,2.45,13.25-.87,15.82-6.91a9.29,9.29,0,0,0,.39-1.12c.31-4.59-.92-8.14-4.88-7.75C82.09,66.46,70.79,70.66,71.52,78Z"/><path class="cls-7" d="M110.67,102a9.1,9.1,0,0,1-9.37,8c-4,0-8.93-2.18-10.28-7.58,1.46-6.75,6.36-13.48,10.36-13.48S109.36,95.41,110.67,102Z"/></g></g></svg>