<svg xmlns="http://www.w3.org/2000/svg" viewBox="0 0 200 250"><defs><style>.cls-1{fill:#dd9954;}.cls-2{opacity:0.32;}.cls-10,.cls-3{fill:none;}.cls-4{fill:#9e9795;}.cls-5{fill:#324366;}.cls-6{fill:#564842;}.cls-7{fill:#e5bfac;}.cls-8{fill:#161312;}.cls-9{fill:#e0bba9;}.cls-10{stroke:#564842;stroke-linecap:round;stroke-miterlimit:10;}.cls-11{opacity:0.28;}.cls-12{fill:#d7dce0;}.cls-13{fill:#8e1c50;}.cls-14{fill:#a0afb5;}.cls-15{fill:#86969b;}.cls-16{fill:#7c2240;}.cls-17{fill:#f4ccb5;}</style></defs><g id="Layer_2" data-name="Layer 2"><g id="Layer_1-2" data-name="Layer 1"><rect class="cls-1" width="200" height="250" rx="12.57"/><g class="cls-2"><path d="M139.54,192v58H41.65V192a20.25,20.25,0,0,1,6-14.37,19.86,19.86,0,0,1,4.69-3.5c.31-.17.63-.34,1-.49h0a7.43,7.43,0,0,1,.81-.37,20,20,0,0,1,7.9-1.6H119.2a20,20,0,0,1,6.08.93,16.66,16.66,0,0,1,1.83.67,16.21,16.21,0,0,1,1.78.86A20.35,20.35,0,0,1,139.54,192Z"/><path d="M139.54,192v58H41.65V192a20.25,20.25,0,0,1,6-14.37,19.86,19.86,0,0,1,4.69-3.5c.31-.17.63-.34,1-.49h0a7.43,7.43,0,0,1,.81-.37,20,20,0,0,1,7.9-1.6H74.11l.84.68,5.13,4.16,9.86,8,10.61-8,4.8-3.63,1.61-1.21H119.2a20,20,0,0,1,6.08.93,16.66,16.66,0,0,1,1.83.67,16.21,16.21,0,0,1,1.78.86A20.35,20.35,0,0,1,139.54,192Z"/><rect x="35.27" y="74.83" width="108.53" height="89.37" rx="33.42"/><path d="M74.56,80.15h31.18a35,35,0,0,1,35,35v10.1a47.51,47.51,0,0,1-47.51,47.51H87.12a47.51,47.51,0,0,1-47.51-47.51v-10.1A35,35,0,0,1,74.56,80.15Z"/><rect x="68.25" y="128.03" width="11.7" height="15.96" rx="4.68"/><rect x="101.23" y="128.03" width="11.7" height="15.96" rx="4.68"/><rect x="59.74" y="147.18" width="14.9" height="8.51" rx="3.43"/><rect x="107.62" y="147.18" width="14.9" height="8.51" rx="3.43"/><path class="cls-3" d="M84.74,159.42H96.45"/><path d="M74.64,123.24a32.56,32.56,0,0,0-6.39-.53,34,34,0,0,0-5.32.53,1.6,1.6,0,0,1,0-3.19,32.56,32.56,0,0,1,6.39-.53,31.85,31.85,0,0,1,5.32.53,1.6,1.6,0,0,1,0,3.19Z"/><path d="M118.34,122.73a32.56,32.56,0,0,0-6.39-.53,31.74,31.74,0,0,0-5.32.53,1.6,1.6,0,0,1,0-3.19A32.56,32.56,0,0,1,113,119a31.74,31.74,0,0,1,5.32.53,1.6,1.6,0,0,1,0,3.19Z"/><path d="M62.11,77h45.51a0,0,0,0,1,0,0v8.27A24.71,24.71,0,0,1,82.9,109.95H37.4a0,0,0,0,1,0,0v-8.27A24.71,24.71,0,0,1,62.11,77Z" transform="translate(145.01 186.91) rotate(180)"/><path d="M105,76.68h9.79a24.71,24.71,0,0,1,24.71,24.71v8.27a0,0,0,0,1,0,0h-9.79A24.71,24.71,0,0,1,105,85V76.68a0,0,0,0,1,0,0Z"/><path d="M137.19,92.13l0,0h0A32.66,32.66,0,0,0,109.75,77.2h-43a32.48,32.48,0,0,0-18.25,5.56s0,0,0,0h0a33.42,33.42,0,0,0-6.59,5.86l0,0s0,0,0,0v0A32.6,32.6,0,0,0,34,109.9v33.9a32.74,32.74,0,0,0,19.26,29.83h0A32.7,32.7,0,0,0,66.7,176.5h43.05a32.67,32.67,0,0,0,32.7-32.7V109.9A32.4,32.4,0,0,0,137.19,92.13Zm-1.66,57.48a2.3,2.3,0,1,1-2.29-2.29,2.4,2.4,0,0,1,.71.11A2.3,2.3,0,0,1,135.53,149.61Zm-27.48,17.62a2.31,2.31,0,0,1,2.78-1.71,2.29,2.29,0,0,1,1.76,2,2.19,2.19,0,0,1,0,.8,2.3,2.3,0,0,1-2.77,1.71,2.38,2.38,0,0,1-1.22-.73A2.32,2.32,0,0,1,108.05,167.23ZM41.6,105.32a2.35,2.35,0,0,1,.54-.06,2.28,2.28,0,1,1-.54.06ZM69.79,92.8a2.3,2.3,0,1,1-2.31-2.3A2.31,2.31,0,0,1,69.79,92.8ZM67.48,103a2.3,2.3,0,1,1-2.29,2.3A2.3,2.3,0,0,1,67.48,103ZM112,90.5a2.31,2.31,0,1,1-2.31,2.3A2.31,2.31,0,0,1,112,90.5Zm-11.59,70a2.3,2.3,0,1,1-4.48-1.06h0a2.3,2.3,0,0,1,4.48,1.07ZM50.26,138.55a2.15,2.15,0,1,1-2.29,2A2.15,2.15,0,0,1,50.26,138.55Zm-4-21.42a2.3,2.3,0,1,1,2.29,2.3A2.3,2.3,0,0,1,46.23,117.13ZM62.7,149.32a2.16,2.16,0,1,1-.91-1.76A2.15,2.15,0,0,1,62.7,149.32Zm8.53-4.56H64.72A5.79,5.79,0,0,1,58.93,139v-4.38a5.79,5.79,0,0,1,5.79-5.79h6.51A5.8,5.8,0,0,1,77,134.59V139a5.78,5.78,0,0,1-2.93,5A5.66,5.66,0,0,1,71.23,144.76Zm-6-27.44a2.3,2.3,0,1,1,3,2.22h0a2.59,2.59,0,0,1-.63.08,3.28,3.28,0,0,1-.46,0h0A2.31,2.31,0,0,1,65.19,117.32Zm44.46,0a2.31,2.31,0,0,1,4.61,0,2.25,2.25,0,0,1-.75,1.69,2.22,2.22,0,0,1-1.55.61,2.25,2.25,0,0,1-1.5-.55A2.28,2.28,0,0,1,109.65,117.32Zm0-12a2.31,2.31,0,1,1,2.31,2.3A2.3,2.3,0,0,1,109.65,105.3ZM96.26,119.62a2.3,2.3,0,1,1,2.3-2.3A2.29,2.29,0,0,1,96.26,119.62Zm-11.85-2.3a2.3,2.3,0,1,1-2.3-2.3A2.29,2.29,0,0,1,84.41,117.32Zm-7.74,42.11a2.31,2.31,0,1,1,1.71,2.77A2.29,2.29,0,0,1,76.67,159.43ZM86,150.08a3.11,3.11,0,0,1,2.17-.89h1.78A3.07,3.07,0,0,1,93,152.25a3.07,3.07,0,0,1-3.07,3.07H88.13A3.08,3.08,0,0,1,86,150.08ZM102.55,139v-4.38a5.8,5.8,0,0,1,5.79-5.79h6.51a5.8,5.8,0,0,1,5.79,5.79V139a5.79,5.79,0,0,1-5.79,5.79h-6.51a5.67,5.67,0,0,1-3-.85A5.76,5.76,0,0,1,102.55,139Zm17.34,10.77a2.26,2.26,0,0,1,1-1.91,2.19,2.19,0,0,1,1.26-.39,2.3,2.3,0,0,1,.32,4.58l-.32,0A2.3,2.3,0,0,1,119.89,149.74Zm5.87-9.18a2.29,2.29,0,1,1,2.28,2.3A2.29,2.29,0,0,1,125.76,140.56Zm2.39-22.36a2.31,2.31,0,1,1,2.3,2.29A2.3,2.3,0,0,1,128.15,118.2Zm4.26-10.64a2.3,2.3,0,1,1,3.21,2.1,2.3,2.3,0,0,1-1.83,0A2.29,2.29,0,0,1,132.41,107.56ZM44,150.06a2.16,2.16,0,0,1,2.15-2.16,2.63,2.63,0,0,1,.49,0,2.17,2.17,0,0,1,1.67,2.11,2.22,2.22,0,0,1-.05.45,2.15,2.15,0,0,1-4.26-.45Zm24.36,18.23a2.3,2.3,0,1,1-4.48-1.06,2.35,2.35,0,0,1,.87-1.33,2.28,2.28,0,0,1,1.89-.38,2.3,2.3,0,0,1,1.78,2.32A3.47,3.47,0,0,1,68.39,168.29Zm10.52,6.26a2.3,2.3,0,0,1-2.31-2.31,1.85,1.85,0,0,1,.08-.58A2.25,2.25,0,0,1,77,171h0a2.31,2.31,0,0,1,4.15.68,1.15,1.15,0,0,1,.06.28,2.83,2.83,0,0,1,0,.3A2.3,2.3,0,0,1,78.91,174.55Zm19.22-1.06a2.29,2.29,0,0,1-2-1.12,2.22,2.22,0,0,1-.29-.71,3.88,3.88,0,0,1,0-.48,2.3,2.3,0,0,1,4.6,0,3.88,3.88,0,0,1,0,.48,0,0,0,0,0,0,0A2.31,2.31,0,0,1,98.13,173.49Z"/><polygon points="63.27 123.73 89.29 123.68 115.31 123.63 102.31 127.81 89.31 132 76.29 127.86 63.27 123.73"/><polygon points="52.28 166.96 62.38 156.36 72.47 145.77 72.6 145.82 61.68 166.29 61.77 165.89 52.28 166.96"/><polygon points="125.71 166.38 115.62 155.79 105.52 145.19 105.39 145.25 116.32 165.72 116.23 165.32 125.71 166.38"/><path d="M182.81,181.23l-.18.63-2.61,9C175,200,171,207.15,167.87,212.82l-2.42,4.46c-1.29,2.36-2.38,4.39-3.29,6.12-3.79,7.1-4.76,9.18-4.76,9.18l-6.34,5.68-.91.82-5.43,4.86,3.13-7L179,167.46Z"/><polygon points="150.18 240.82 144.53 250 139.83 250 140.16 249.38 145.92 238.69 147.68 236.9 147.84 236.99 150.12 238.14 150.14 239.08 150.18 240.82"/><path d="M142.82,250h-7.64a10.92,10.92,0,0,1,3.82-.67h.54l.62,0A11.1,11.1,0,0,1,142.82,250Z"/><path d="M165.45,217.28c-1.29,2.36-2.38,4.39-3.29,6.12-1.33-1-2.15-3.55-1.34-4.93S163.67,217.65,165.45,217.28Z"/><path d="M182.63,181.86l-2.61,9C175,200,171,207.15,167.87,212.82c-.25-2.06-.85-4.72.39-8.18a26.57,26.57,0,0,1,2.13-4.26c1.3-2.09,2-2.32,3.19-4.25a28.42,28.42,0,0,0,3.2-6.39c1.29-3.78.71-5.07,2.12-6.38A6.07,6.07,0,0,1,182.63,181.86Z"/></g><path class="cls-4" d="M71,158.5h59.66a19.11,19.11,0,0,1,19.11,19.11V250a0,0,0,0,1,0,0H51.84a0,0,0,0,1,0,0V177.61A19.11,19.11,0,0,1,71,158.5Z"/><path class="cls-5" d="M149.73,178.83V250H51.84V178.83A20.34,20.34,0,0,1,72.18,158.5H84.3l.85.68,15,12.17,15.4-11.64,1.61-1.21H129.4A20.34,20.34,0,0,1,149.73,178.83Z"/><rect class="cls-6" x="45.46" y="61.68" width="108.53" height="89.37" rx="33.42"/><path class="cls-7" d="M84.76,67h31.18a35,35,0,0,1,35,35v10.1a47.51,47.51,0,0,1-47.51,47.51H97.31A47.51,47.51,0,0,1,49.8,112.06V102A35,35,0,0,1,84.76,67Z"/><rect class="cls-8" x="78.44" y="114.88" width="11.7" height="15.96" rx="4.68"/><rect class="cls-8" x="111.43" y="114.88" width="11.7" height="15.96" rx="4.68"/><rect class="cls-9" x="69.93" y="134.03" width="14.9" height="8.51" rx="3.43"/><rect class="cls-9" x="117.81" y="134.03" width="14.9" height="8.51" rx="3.43"/><path class="cls-10" d="M94.93,146.26h11.71"/><path class="cls-6" d="M84.83,110.09a31.09,31.09,0,0,0-6.39-.53,31.74,31.74,0,0,0-5.32.53,1.6,1.6,0,0,1,0-3.19,31.74,31.74,0,0,1,6.39-.54,32.74,32.74,0,0,1,5.32.54,1.6,1.6,0,0,1,0,3.19Z"/><path class="cls-6" d="M128.53,109.57a32.56,32.56,0,0,0-6.39-.53,34,34,0,0,0-5.32.53,1.6,1.6,0,0,1,0-3.19,32.56,32.56,0,0,1,6.39-.53,31.74,31.74,0,0,1,5.32.53,1.6,1.6,0,0,1,0,3.19Z"/><path class="cls-6" d="M72.3,63.8h45.51a0,0,0,0,1,0,0v8.27A24.71,24.71,0,0,1,93.1,96.79H47.59a0,0,0,0,1,0,0V88.52A24.71,24.71,0,0,1,72.3,63.8Z" transform="translate(165.4 160.59) rotate(180)"/><path class="cls-6" d="M115.23,63.52H125a24.71,24.71,0,0,1,24.71,24.71v8.27a0,0,0,0,1,0,0h-9.79a24.71,24.71,0,0,1-24.71-24.71V63.52a0,0,0,0,1,0,0Z"/><g class="cls-11"><path d="M118.23,65.76H75.17A32.7,32.7,0,0,0,45.37,85a.61.61,0,0,0,0,.12,32.48,32.48,0,0,0-2.13,11.62v33.91a32.7,32.7,0,0,0,32.69,32.69h43.06a32.72,32.72,0,0,0,29.81-19.24.61.61,0,0,0,.05-.12,32.48,32.48,0,0,0,2.13-11.62V98.45A32.7,32.7,0,0,0,118.23,65.76Zm19.11,39.33a2.27,2.27,0,0,1,1.58-.64,2.31,2.31,0,0,1,2.31,2.26v0a2.3,2.3,0,1,1-3.89-1.66ZM130.67,136a2.3,2.3,0,0,1,2.29,2.25v.05a2.3,2.3,0,1,1-2.29-2.3Zm-23.54,10.28a2.3,2.3,0,0,1,1.78,2.19,1.94,1.94,0,0,1-.06.58,2.3,2.3,0,1,1-4.48-1.06,2.21,2.21,0,0,1,.65-1.13A2.25,2.25,0,0,1,107.13,146.28Zm11.71-66.59a2.33,2.33,0,0,1,1.59-.63,2.3,2.3,0,0,1,2.3,2.26v0a2.31,2.31,0,1,1-3.89-1.67Zm0,12.5a2.33,2.33,0,0,1,1.59-.63,2.3,2.3,0,0,1,2.3,2.25v0a2.31,2.31,0,1,1-3.89-1.67Zm0,12a2.33,2.33,0,0,1,1.59-.63,2.3,2.3,0,0,1,2.3,2.25v0a2.31,2.31,0,0,1-4.61,0A2.32,2.32,0,0,1,118.84,104.21Zm-15.69,0a2.31,2.31,0,0,1,3.89,1.62v0a2.3,2.3,0,1,1-3.89-1.67Zm-14.15,0a2.31,2.31,0,0,1,3.89,1.62v0A2.3,2.3,0,1,1,89,104.21ZM74.37,79.69a2.31,2.31,0,0,1,3.9,1.62v0a2.31,2.31,0,1,1-3.9-1.67Zm0,12.5a2.31,2.31,0,0,1,3.9,1.61v.06a2.31,2.31,0,1,1-3.9-1.67Zm0,12a2.31,2.31,0,0,1,3.9,1.61v.06a2.31,2.31,0,1,1-3.9-1.67ZM69,135.71a2.16,2.16,0,0,1,2.15,2.06v.1a2.15,2.15,0,0,1-4.3,0,2.18,2.18,0,0,1,.71-1.61A2.14,2.14,0,0,1,69,135.71ZM55.41,104a2.31,2.31,0,0,1,3.9,1.61v.06a2.31,2.31,0,1,1-3.9-1.67Zm-4.8-5.61a2.3,2.3,0,1,1,2.31-2.34v0A2.3,2.3,0,0,1,50.61,98.41Zm4,42.36a2.16,2.16,0,0,1-2.15-2.15,2.21,2.21,0,0,1,.71-1.61,2.16,2.16,0,0,1,3.59,1.48.57.57,0,0,1,0,.13A2.16,2.16,0,0,1,54.66,140.77Zm6.08-11.39a2.15,2.15,0,1,1-4.29-.26,2.17,2.17,0,0,1,.71-1.47,2.13,2.13,0,0,1,1.57-.54,2.15,2.15,0,0,1,2,2A.88.88,0,0,1,60.74,129.38Zm16.12,27.46a2.3,2.3,0,1,1,.06-.57A1.85,1.85,0,0,1,76.86,156.84ZM81.62,133a3,3,0,0,1-.45.13,5.49,5.49,0,0,1-1.47.2H73.19a5.8,5.8,0,0,1-5.79-5.79v-4.38a5.69,5.69,0,0,1,.88-3.05,5.79,5.79,0,0,1,4.91-2.74H79.7a5.79,5.79,0,0,1,5.79,5.79v4.38a5.32,5.32,0,0,1-.16,1.33A5.77,5.77,0,0,1,81.62,133Zm3.52,15a2.3,2.3,0,0,1,.66-1.13,2.26,2.26,0,0,1,2.12-.58,2.32,2.32,0,0,1,1.77,2.18,2,2,0,0,1-.06.59A2.31,2.31,0,0,1,85.14,148Zm4.54,12.81a2.3,2.3,0,1,1-3.89-1.65,2.28,2.28,0,0,1,1.6-.65,2.3,2.3,0,0,1,2.29,2.26ZM100.56,143a3.08,3.08,0,0,1-2.17.89H96.61a3.06,3.06,0,0,1-3.06-3.06,3,3,0,0,1,.73-2,1.37,1.37,0,0,1,.16-.18,3.1,3.1,0,0,1,2.17-.89h1.78a3.06,3.06,0,0,1,3.06,3.06,1.27,1.27,0,0,1,0,.28A3,3,0,0,1,100.56,143Zm8.35,16.76a2.28,2.28,0,1,1,0-.05ZM111,127.53v-4.38a5.82,5.82,0,0,1,5.79-5.79h6.51a5.79,5.79,0,0,1,5.78,5.79v4.38a5.57,5.57,0,0,1-.17,1.36,5.78,5.78,0,0,1-5.61,4.43h-6.51a5.15,5.15,0,0,1-1-.09,3.72,3.72,0,0,1-.75-.17A5.8,5.8,0,0,1,111,127.53Zm10,29.31a2.31,2.31,0,1,1-4.49-1.05,2.35,2.35,0,0,1,2.77-1.71,2.27,2.27,0,0,1,1.77,2.18A2.32,2.32,0,0,1,121,156.84Zm17.8-27.72a2.3,2.3,0,1,1-3.88-1.67,2.27,2.27,0,0,1,1.58-.63,2.3,2.3,0,0,1,2.3,2.25Zm5.19,9a2.3,2.3,0,1,1-3.88-1.66,2.26,2.26,0,0,1,1.58-.64,2.31,2.31,0,0,1,2.3,2.25Zm1.48-42.06a2.31,2.31,0,1,1-2.31-2.3,2.3,2.3,0,0,1,2.31,2.3Z"/><polygon points="71.75 112.28 97.77 112.23 123.78 112.18 110.78 116.37 97.78 120.55 84.77 116.42 71.75 112.28"/><polygon points="60.76 155.51 70.86 144.92 80.95 134.32 81.08 134.38 70.16 154.85 70.25 154.45 60.76 155.51"/><polygon points="134.19 154.94 124.1 144.35 114 133.75 113.87 133.81 124.8 154.27 124.7 153.87 134.19 154.94"/></g><path class="cls-12" d="M118.94,64H75.88A32.69,32.69,0,0,0,45.37,85a.61.61,0,0,0,0,.12,32.48,32.48,0,0,0-2.13,11.62v33.91a32.7,32.7,0,0,0,32.69,32.69h43.06a32.72,32.72,0,0,0,29.81-19.24.61.61,0,0,0,.05-.12,32.41,32.41,0,0,0,2.84-13.33V96.74A32.7,32.7,0,0,0,118.94,64ZM80.42,131.61H73.9a5.79,5.79,0,0,1-5.78-5.79v-4.39a5.32,5.32,0,0,1,.16-1.33,5.78,5.78,0,0,1,5.62-4.45h6.52a5.78,5.78,0,0,1,5.78,5.78v4.39a5.71,5.71,0,0,1-.87,3A5.77,5.77,0,0,1,80.42,131.61ZM57.71,106.27a2.29,2.29,0,0,1-2.3-2.25v0A2.31,2.31,0,0,1,60,104a2.3,2.3,0,0,1-2.31,2.29ZM51.33,96.7A2.3,2.3,0,0,1,49,94.45v0a2.31,2.31,0,1,1,3.89,1.67A2.33,2.33,0,0,1,51.33,96.7Zm23-4.56a2.31,2.31,0,1,1,2.3,2.3,2.29,2.29,0,0,1-2.3-2.3Zm0,12a2.31,2.31,0,0,1,4.61,0,2.26,2.26,0,0,1-.71,1.65,2.31,2.31,0,0,1-3.9-1.61Zm16.93,2.29a2.28,2.28,0,0,1-2.3-2.25v0a2.31,2.31,0,1,1,2.3,2.29Zm14.15,0a2.29,2.29,0,0,1-2.3-2.25v0a2.31,2.31,0,1,1,2.3,2.29Zm13.39-14.32a2.3,2.3,0,1,1,3.89,1.67,2.31,2.31,0,0,1-3.89-1.62Zm0,12a2.31,2.31,0,1,1,2.3,2.29,2.3,2.3,0,0,1-2.3-2.29Zm3.89-22.85a2.31,2.31,0,0,1-3.89-1.63v0a2.3,2.3,0,0,1,4.6,0A2.33,2.33,0,0,1,122.73,81.32ZM79,79.64a2.31,2.31,0,0,1-4.61,0v0a2.31,2.31,0,0,1,4.61,0Zm-9.25,58.67a2.15,2.15,0,0,1-2.15-2.05v-.1a2.15,2.15,0,1,1,3.59,1.61A2.21,2.21,0,0,1,69.73,138.31Zm42-16.88a5.17,5.17,0,0,1,.16-1.31,5.78,5.78,0,0,1,5.63-4.47H124a5.79,5.79,0,0,1,5.79,5.78v4.39a5.81,5.81,0,0,1-5.79,5.79h-6.51a5.8,5.8,0,0,1-5.79-5.79Zm19.64,17.45a2.29,2.29,0,0,1-2.3-2.25v0a2.3,2.3,0,1,1,2.3,2.29Zm8.26-31.54a2.3,2.3,0,0,1-2.3-2.25v0a2.31,2.31,0,1,1,2.3,2.3ZM56.81,138.49A2.15,2.15,0,0,1,53.22,137v-.1a2.16,2.16,0,1,1,4.31,0A2.09,2.09,0,0,1,56.81,138.49Zm2.37-8.8a2.14,2.14,0,0,1-2-2,1,1,0,0,1,0-.25,2.15,2.15,0,0,1,4.3.27,2.18,2.18,0,0,1-.72,1.48A2.1,2.1,0,0,1,59.18,129.69Zm18.39,25.44a2.14,2.14,0,0,1-.65,1.14A2.31,2.31,0,0,1,73,154.66a2.36,2.36,0,0,1,.07-.58,2.3,2.3,0,1,1,4.47,1Zm12.11,5.63a2.27,2.27,0,0,1-1.58.64,2.31,2.31,0,0,1-2.31-2.25v-.06a2.31,2.31,0,1,1,3.89,1.67Zm.66-13.43a2.3,2.3,0,0,1-4.54-.47,2.3,2.3,0,1,1,4.54.47Zm11.09-6.24-.16.18a3.06,3.06,0,0,1-2.17.89H97.32a3.06,3.06,0,0,1-3.06-3.06,1.27,1.27,0,0,1,0-.28,3,3,0,0,1,.87-1.89,3.08,3.08,0,0,1,2.17-.9H99.1a3.07,3.07,0,0,1,2.33,5.06Zm7.48,18.6a2.31,2.31,0,0,1-3.9-1.62v0a2.31,2.31,0,1,1,3.9,1.67Zm.65-12.36a2.36,2.36,0,0,1-.65,1.14,2.3,2.3,0,0,1-3.89-1.61,1.91,1.91,0,0,1,.06-.58,2.3,2.3,0,0,1,4.48,1.05Zm12.17,7.8a2.21,2.21,0,0,1-.66,1.13,2.29,2.29,0,0,1-3.88-1.59,1.71,1.71,0,0,1,0-.59,2.31,2.31,0,1,1,4.49,1Zm15.5-25.43a2.3,2.3,0,0,1-2.29-2.25v0a2.3,2.3,0,1,1,2.29,2.3Zm6.78,8.42a2.28,2.28,0,0,1-1.59.64,2.31,2.31,0,0,1-2.29-2.25v0a2.3,2.3,0,1,1,3.88,1.66Zm1.48-42.06a2.31,2.31,0,0,1-3.9-1.61v0a2.31,2.31,0,0,1,4.61,0A2.27,2.27,0,0,1,145.49,96.06Z"/><polygon class="cls-13" points="72.46 110.57 98.48 110.52 124.5 110.47 111.5 114.66 98.5 118.84 85.48 114.7 72.46 110.57"/><polygon class="cls-13" points="61.47 153.8 71.57 143.21 81.66 132.61 81.79 132.67 70.87 153.13 70.96 152.73 61.47 153.8"/><polygon class="cls-13" points="134.9 153.23 124.81 142.63 114.71 132.04 114.58 132.09 125.51 152.56 125.42 152.16 134.9 153.23"/><path class="cls-14" d="M193,168.07l-.18.63-2.61,9c-5.07,9.09-9.05,16.28-12.15,21.95l-2.42,4.46c-1.29,2.36-2.38,4.4-3.29,6.12-3.79,7.11-4.76,9.18-4.76,9.18l-6.34,5.68-.91.82-5.43,4.86,3.13-6.95,31.19-69.52Z"/><polygon class="cls-15" points="157.86 223.74 160.31 224.98 160.37 227.66 151.86 241.49 148.66 239.36 156.11 225.53 157.86 223.74"/><path class="cls-16" d="M171.78,205.37c-1.25,2.3-2.31,4.28-3.2,5.95-1.29-1-2.09-3.44-1.3-4.79S170.05,205.73,171.78,205.37Z"/><path class="cls-16" d="M189.49,170.92,187,179.68c-4.94,8.84-8.81,15.84-11.82,21.35-.25-2-.83-4.59.38-7.95a23.9,23.9,0,0,1,2.07-4.14c1.26-2,1.91-2.26,3.11-4.14a28.65,28.65,0,0,0,3.1-6.21c1.26-3.69.69-4.94,2.07-6.21A5.86,5.86,0,0,1,189.49,170.92Z"/><path class="cls-17" d="M159.3,245.21a8.3,8.3,0,0,1-1.53,4.79H140.62a8.3,8.3,0,0,1-1.53-4.79c0-5,4.52-9,10.11-9S159.3,240.22,159.3,245.21Z"/></g></g></svg>
