<svg xmlns="http://www.w3.org/2000/svg" viewBox="0 0 200 260"><defs><style>.cls-1{fill:#2abc8f;}.cls-2{opacity:0.42;}.cls-3{fill:#17564a;}.cls-4{fill:#dde8e4;}.cls-5{fill:#cecece;}.cls-6{fill:#212020;}.cls-7{fill:#bab1b6;}.cls-8{fill:#474747;}</style></defs><g id="Layer_2" data-name="Layer 2"><g id="Layer_1-2" data-name="Layer 1"><rect class="cls-1" width="200" height="250" rx="12.48"/><g class="cls-2"><path class="cls-3" d="M156.32,150.75V258.53A5.18,5.18,0,0,1,154,254h-.08a6.53,6.53,0,0,1,.08,1c0,2.76-1.79,5-4,5-1.89,0-3.48-1.64-3.89-3.85A3.77,3.77,0,0,1,143,258c-1.94,0-3.55-1.72-3.92-4H139v-3.2a7,7,0,0,1,0-.8H59v2h-.08c-.37,2.28-2,4-3.92,4a3.77,3.77,0,0,1-3.11-1.85c-.41,2.21-2,3.85-3.89,3.85-2.21,0-4-2.24-4-5a6.53,6.53,0,0,1,.08-1H44c0,2.76-1.79,5-4,5s-4-2.24-4-5h-.07c-.32,2.28-1.74,4-3.43,4s-3.11-1.72-3.43-4H29v-2H20.32V150.75a49,49,0,0,1,18-38l.67-.54a48.89,48.89,0,0,1,30.4-10.54h37.86a49.07,49.07,0,0,1,49.07,49.07Z"/><path class="cls-3" d="M89.32,44.68h0c-28.17,0-51,26.37-51,58.91V224.32c0,3.51,2.46,6.36,5.5,6.36h6c3,0,5.5-2.85,5.5-6.36v-33.5c0-3.51,2.46-6.36,5.5-6.36h0c3,0,5.5,2.85,5.5,6.36v10.4c0,3.5,2.46,6.35,5.5,6.35h6c3,0,5.5-2.85,5.5-6.35v-10.4c0-3.51,2.46-6.36,5.5-6.36h0c3,0,5.5,2.85,5.5,6.36v22c0,3.51,2.46,6.35,5.5,6.35h6c3,0,5.5-2.84,5.5-6.35v-22c0-3.51,2.46-6.36,5.5-6.36h1c3,0,5.5,2.85,5.5,6.36V219.7c0,3.51,2.46,6.35,5.5,6.35h6c3,0,5.5-2.84,5.5-6.35V103.59C140.32,71.05,117.49,44.68,89.32,44.68Z"/></g><path class="cls-4" d="M167,139.38V250H31V139.38a49.41,49.41,0,0,1,15.71-36.22A48.74,48.74,0,0,1,80.07,90h37.86a48.7,48.7,0,0,1,30.76,10.9A49.42,49.42,0,0,1,167,139.38Z"/><path class="cls-5" d="M148.71,102.94V235.47c0,4-2.46,7.25-5.5,7.25h-6c-3,0-5.5-3.24-5.5-7.25v-33c0-4-2.46-7.25-5.5-7.25h-1c-3,0-5.5,3.25-5.5,7.25v25.06c0,4-2.46,7.25-5.5,7.25h-6c-3,0-5.5-3.25-5.5-7.25V202.5a8.52,8.52,0,0,0-1.61-5.13,4.93,4.93,0,0,0-3.89-2.12c-3,0-5.5,3.25-5.5,7.25v11.87c0,4-2.46,7.25-5.5,7.25h-6c-3,0-5.5-3.24-5.5-7.25V202.5a8.52,8.52,0,0,0-1.61-5.13,4.93,4.93,0,0,0-3.89-2.12c-3,0-5.5,3.25-5.5,7.25v38.25c0,4-2.46,7.25-5.5,7.25h-6c-3,0-5.5-3.25-5.5-7.25V103.42A48.24,48.24,0,0,1,80.07,90h37.86a48.09,48.09,0,0,1,30.76,11.11C148.7,101.71,148.71,102.33,148.71,102.94Z"/><path class="cls-6" d="M100,33h0C71.83,33,49,62.36,49,98.57V232.93c0,3.9,2.46,7.07,5.5,7.07h6c3,0,5.5-3.17,5.5-7.07V195.64c0-3.9,2.46-7.07,5.5-7.07h0c3,0,5.5,3.17,5.5,7.07v11.57c0,3.91,2.46,7.08,5.5,7.08h6c3,0,5.5-3.17,5.5-7.08V195.64c0-3.9,2.46-7.07,5.5-7.07h0c3,0,5.5,3.17,5.5,7.07v24.43c0,3.91,2.46,7.07,5.5,7.07h6c3,0,5.5-3.16,5.5-7.07V195.64c0-3.9,2.46-7.07,5.5-7.07h1c3,0,5.5,3.17,5.5,7.07v32.15c0,3.9,2.46,7.07,5.5,7.07h6c3,0,5.5-3.17,5.5-7.07V98.57C151,62.36,128.17,33,100,33Z"/><path class="cls-7" d="M59,248.8V252H29v-3.2a8.79,8.79,0,0,1,8.8-8.8H50.2A8.8,8.8,0,0,1,59,248.8Z"/><path class="cls-7" d="M36,251a6.54,6.54,0,0,1-.07,1c-.32,2.28-1.74,4-3.43,4s-3.11-1.72-3.43-4a7.18,7.18,0,0,1,0-2A5.06,5.06,0,0,1,31,246.49a2.56,2.56,0,0,1,1.5-.49c1.43,0,2.67,1.24,3.2,3a5.39,5.39,0,0,1,.23,1A6.54,6.54,0,0,1,36,251Z"/><path class="cls-7" d="M44,252c0,2.76-1.79,5-4,5s-4-2.24-4-5a5.91,5.91,0,0,1,.34-2,5.37,5.37,0,0,1,.46-1,3.56,3.56,0,0,1,6.4,0,5.37,5.37,0,0,1,.46,1A5.91,5.91,0,0,1,44,252Z"/><path class="cls-7" d="M52,253a6.15,6.15,0,0,1-.11,1.15c-.41,2.21-2,3.85-3.89,3.85-2.21,0-4-2.24-4-5a6.53,6.53,0,0,1,.08-1,5.61,5.61,0,0,1,.72-2,4.43,4.43,0,0,1,.81-1,3.36,3.36,0,0,1,4.78,0,4.26,4.26,0,0,1,.72.85l.09.15a5.61,5.61,0,0,1,.72,2A6.53,6.53,0,0,1,52,253Z"/><path class="cls-7" d="M59,251a6.53,6.53,0,0,1-.08,1c-.37,2.28-2,4-3.92,4a3.77,3.77,0,0,1-3.11-1.85,5.72,5.72,0,0,1-.81-2.15,6.29,6.29,0,0,1,0-2l0-.15a4.84,4.84,0,0,1,.23-.85,3.73,3.73,0,0,1,7.32,0,5.44,5.44,0,0,1,.26,1A6.53,6.53,0,0,1,59,251Z"/><path class="cls-7" d="M169,250.8V254H139v-3.2a7,7,0,0,1,0-.8,8,8,0,0,1,.15-1,8.8,8.8,0,0,1,8.61-7h12.4a8.78,8.78,0,0,1,8.76,8A7,7,0,0,1,169,250.8Z"/><ellipse class="cls-7" cx="165.5" cy="253" rx="3.5" ry="5"/><path class="cls-7" d="M162,254c0,2.76-1.79,5-4,5a3.3,3.3,0,0,1-1.68-.47A5.18,5.18,0,0,1,154,254a5.44,5.44,0,0,1,1.61-4,3.2,3.2,0,0,1,.71-.53A3.3,3.3,0,0,1,158,249a3.48,3.48,0,0,1,2.39,1A5.44,5.44,0,0,1,162,254Z"/><path class="cls-7" d="M154,255c0,2.76-1.79,5-4,5-1.89,0-3.48-1.64-3.89-3.85A6.15,6.15,0,0,1,146,255a6.53,6.53,0,0,1,.08-1,5.72,5.72,0,0,1,.81-2.15A3.77,3.77,0,0,1,150,250c1.94,0,3.55,1.72,3.92,4A6.53,6.53,0,0,1,154,255Z"/><path class="cls-7" d="M147,253a6.53,6.53,0,0,1-.08,1,5.72,5.72,0,0,1-.81,2.15A3.77,3.77,0,0,1,143,258c-1.94,0-3.55-1.72-3.92-4a6.53,6.53,0,0,1-.08-1,5.83,5.83,0,0,1,.8-3,4.43,4.43,0,0,1,.81-1,3.36,3.36,0,0,1,4.78,0,4.43,4.43,0,0,1,.81,1,5.77,5.77,0,0,1,.69,1.85A6.15,6.15,0,0,1,147,253Z"/><rect class="cls-8" x="73.74" y="42.54" width="18.62" height="6.92" rx="3.46" transform="translate(-11.87 47.69) rotate(-30)"/><rect class="cls-8" x="69" y="52" width="5" height="5" rx="2.5"/></g></g></svg>
