<svg xmlns="http://www.w3.org/2000/svg" viewBox="0 0 200.5 250.5"><defs><style>.cls-1{fill:#4da0c1;}.cls-2{opacity:0.24;}.cls-3,.cls-4{stroke:#000;stroke-miterlimit:10;}.cls-15,.cls-4{opacity:0.33;}.cls-5{fill:#492f0d;}.cls-6{fill:#ce6925;}.cls-7{fill:#a85720;}.cls-8{fill:#5b2e10;}.cls-9{fill:#351b09;}.cls-10{fill:#db7dbc;}.cls-11{fill:#5b3c0e;}.cls-12{opacity:0.28;}.cls-13{fill:#10420a;}.cls-14{fill:#145e0e;}.cls-16{fill:#546d17;}</style></defs><g id="Layer_2" data-name="Layer 2"><g id="Layer_1-2" data-name="Layer 1"><path class="cls-1" d="M200.5,12.57V237.43c0,.22,0,.43,0,.65s0,.42,0,.63a6,6,0,0,1-.08.61,4.5,4.5,0,0,1-.11.64c0,.2-.08.4-.14.6a11.64,11.64,0,0,1-1.09,2.79c-.17.32-.35.64-.55.94l-.31.45a12.43,12.43,0,0,1-1.77,2l0,0q-.4.36-.84.69c-.28.22-.58.42-.89.62l-.46.28-.5.27-.46.22,0,0-.47.2a9.41,9.41,0,0,1-1,.37,13.09,13.09,0,0,1-1.67.39c-.26.05-.52.08-.79.11s-.42,0-.63,0l-.65,0H13.07A12.57,12.57,0,0,1,.5,237.43V12.57A12.57,12.57,0,0,1,13.07,0H187.93A12.57,12.57,0,0,1,200.5,12.57Z"/><g class="cls-2"><path class="cls-3" d="M98.64,175.8V250h-17V175.8h17Z"/><ellipse cx="108.64" cy="118.3" rx="45" ry="56.5"/><path d="M108.64,63.8c23.75,0,43,24.4,43,54.5s-19.25,54.5-43,54.5-43-24.4-43-54.5,19.25-54.5,43-54.5m0-4c-25.92,0-47,26.24-47,58.5s21.08,58.5,47,58.5,47-26.25,47-58.5-21.08-58.5-47-58.5Z"/><ellipse cx="75.64" cy="118.3" rx="45" ry="56.5"/><path d="M75.64,63.8c23.75,0,43,24.4,43,54.5s-19.25,54.5-43,54.5-43-24.4-43-54.5,19.25-54.5,43-54.5m0-4c-25.92,0-47,26.24-47,58.5s21.08,58.5,47,58.5,47-26.25,47-58.5-21.08-58.5-47-58.5Z"/><ellipse cx="120.64" cy="124.3" rx="47" ry="56.5"/><path d="M120.64,69.8c24.85,0,45,24.4,45,54.5s-20.15,54.5-45,54.5-45-24.4-45-54.5,20.15-54.5,45-54.5m0-4c-27,0-49,26.24-49,58.5s22,58.5,49,58.5,49-26.25,49-58.5-22-58.5-49-58.5Z"/><ellipse cx="54.64" cy="123.3" rx="47" ry="56.5"/><path d="M54.64,68.8c24.85,0,45,24.4,45,54.5s-20.15,54.5-45,54.5-45-24.4-45-54.5,20.15-54.5,45-54.5m0-4c-27,0-49,26.24-49,58.5s22,58.5,49,58.5,49-26.25,49-58.5-22-58.5-49-58.5Z"/><ellipse cx="89.64" cy="126.3" rx="41" ry="58.5"/><path d="M89.64,69.8c21.54,0,39,25.29,39,56.5s-17.46,56.5-39,56.5-39-25.3-39-56.5,17.46-56.5,39-56.5m0-4c-11.77,0-22.73,6.49-30.87,18.27C51,95.41,46.64,110.4,46.64,126.3S51,157.19,58.77,168.52c8.14,11.79,19.1,18.28,30.87,18.28s22.73-6.49,30.87-18.28c7.82-11.33,12.13-26.33,12.13-42.22s-4.31-30.89-12.13-42.23c-8.14-11.78-19.1-18.27-30.87-18.27Z"/><polygon class="cls-3" points="40.34 142.18 37.19 141.93 35.91 141.83 31.54 141.49 23.96 140.89 22.75 140.79 27.75 133.52 30.96 128.86 32.75 126.25 36.54 134.22 40.34 142.18"/><polygon class="cls-3" points="37.19 141.93 35.91 141.83 31.54 141.49 23.96 140.89 22.75 140.79 27.75 133.52 30.96 128.86 34.07 135.4 37.19 141.93"/><polygon class="cls-3" points="155.99 139.8 153.02 139.92 147.17 140.16 138.36 140.52 142.45 132.71 145.2 127.46 146.54 124.89 151.26 132.34 155.99 139.8"/><polygon class="cls-3" points="153.02 139.92 147.17 140.16 138.36 140.52 142.45 132.71 145.2 127.46 149.09 133.67 153.02 139.92"/><rect class="cls-3" x="17.85" y="144.4" width="16.53" height="8.03" rx="4.02" transform="matrix(1, 0.09, -0.09, 1, 12.88, -1.7)"/><rect class="cls-3" x="141.84" y="144.69" width="16.53" height="8.03" rx="4.02" transform="translate(-21.76 25.79) rotate(-9.16)"/><path class="cls-3" d="M89.39,64.8H78.15L66.74,41.71c-.47-1,.79-1.91,2.54-1.91l22.32,2c1.35,0,2.18.23,2,1Z"/><path class="cls-3" d="M90.64,65.8h-10L70.48,43.63c-.42-.92.7-1.83,2.26-1.83H92.4c1.2,0,2.13.63,2,1.37Z"/><path class="cls-3" d="M47,97.78l26.33-9.52a18,18,0,0,0,10.8-23.05L57.76,74.73a18,18,0,0,0-10.8,23Z"/><path class="cls-3" d="M105.13,87.67l15,9.7c5.31,3.45,12.65,1.55,16.41-4.24l-15-9.7c-5.31-3.44-12.66-1.54-16.41,4.24Z"/><path class="cls-3" d="M126.63,43.61h0a0,0,0,0,1,0,0v3.56a32,32,0,0,1-32,32h0a0,0,0,0,1,0,0V75.61a32,32,0,0,1,32-32Z" transform="translate(45.52 -47.1) rotate(30)"/><path class="cls-3" d="M187.64,176.28,189,184.5c-2.77-2.23-6.63-4.85-8.83-7.66a41.9,41.9,0,0,1-8.58-17.22,27.22,27.22,0,0,1-.11-11.49,21.53,21.53,0,0,0,.1-8.59c-.55-2.9-2.43-10.22-8.07-15.33-5.22-4.73-11.84-5.64-26.31-7.24-5.19-.57-9-.73-12.15-.86-6.17-.25-9.89-.4-14.33-3.72-7-5.24-9.4-13.47-10.13-16.76a27.72,27.72,0,0,1,.17-12.28c.54-2.8.79-4.35,0-6.18C98.58,72.06,90,69.88,83.12,69a3,3,0,0,1,.13-6,3.89,3.89,0,0,1,.68,0c12.36,1.68,19.67,5.53,22.35,11.8,1.55,3.61,1,6.69.37,9.68a22,22,0,0,0-.19,9.86c.45,2.06,2.35,9.1,7.87,13.24,2.94,2.2,5.12,2.29,11,2.53,3.2.13,7.17.29,12.56.89,14.23,1.57,22.81,2.52,29.69,8.75s9.28,15.17,9.93,18.67a27.4,27.4,0,0,1-.07,10.68,21.21,21.21,0,0,0,.06,9.24,36.28,36.28,0,0,0,7.42,14.78A37.47,37.47,0,0,0,187.64,176.28Z"/><path class="cls-3" d="M200,186.17v7.88l-.06-.05c-3.36-2.92-16.78-13.91-18.29-15.88a43.19,43.19,0,0,1-8.56-17.59,28.45,28.45,0,0,1-.11-11.75,22.45,22.45,0,0,0,.09-8.77c-.55-3-2.43-10.44-8.06-15.67-5.21-4.83-11.81-5.76-26.28-7.39-5.18-.59-9-.75-12.13-.87-6.16-.26-9.88-.42-14.3-3.81-7-5.36-9.4-13.75-10.12-17.13a28.74,28.74,0,0,1,.17-12.54c.54-2.86.79-4.45,0-6.32-2.18-5.22-10.78-7.43-17.61-8.38a3.06,3.06,0,0,1-2.57-3.45A3.12,3.12,0,0,1,82.75,63a2.9,2.9,0,0,1,2.79-1.18c12.34,1.7,19.64,5.64,22.33,12,1.53,3.69.94,6.85.37,9.89a22.83,22.83,0,0,0-.2,10.08c.44,2.1,2.34,9.29,7.86,13.52,2.93,2.26,5.11,2.34,10.94,2.59,3.2.13,7.16.29,12.55.91,14.2,1.6,22.77,2.57,29.64,9s9.27,15.49,9.93,19.07a28.73,28.73,0,0,1-.07,10.9,22.26,22.26,0,0,0,.05,9.44,37.28,37.28,0,0,0,7.42,15.11C186.53,174.55,196.21,182.87,200,186.17Z"/><path class="cls-3" d="M127.64,43.8h0a0,0,0,0,1,0,0v0a32,32,0,0,1-32,32h0a0,0,0,0,1,0,0v0A32,32,0,0,1,127.64,43.8Z" transform="translate(44.86 -47.81) rotate(30)"/><path class="cls-3" d="M47.07,95.08,73.4,85.56A18,18,0,0,0,84.21,62.51L57.88,72a18,18,0,0,0-10.81,23Z"/><path class="cls-3" d="M105.25,85.22l15,9.7A11.44,11.44,0,0,0,136,91.55l-14.95-9.7a11.45,11.45,0,0,0-15.84,3.37Z"/><rect class="cls-3" x="0.5" y="201.8" width="187.14" height="15"/><path class="cls-4" d="M98.64,218.94V250H13.07A12.57,12.57,0,0,1,.5,237.43V201.8h52l9.76,9.2,5.83,5.49.27.31,13.31,15.51.32.37a3.48,3.48,0,0,0,5.31,0l.88-1.06,5.26-6.34,1.09-1.31,2.21-2.67Z"/><polygon class="cls-4" points="182.64 201.8 182.64 216.8 100.42 216.8 100.99 216.11 115.5 201.8 182.64 201.8"/><path class="cls-3" d="M187.64,199.8v43.43a12.45,12.45,0,0,1-2,6.77H13.07A12.57,12.57,0,0,1,.5,237.43V199.8h57l2.12,2,9.77,9.2,3.7,3.49,2,2.31,6.6,7.68,5.32,6.2a3.42,3.42,0,0,0,1.19.9,3.49,3.49,0,0,0,4.12-.94L94.5,228l.63-.76,3.28-3.95.23-.27,5.12-6.17,2.23-2.69,3.15-3.11,2.36-2.32,7-6.88,2-2Z"/><polygon class="cls-3" points="110.64 151.99 108.64 158.36 107.22 159.87 104.64 162.61 104.59 162.58 100.64 160.02 96.64 163.68 91.64 162.61 86.64 165.8 83.64 161.55 78.64 163.68 75.64 158.36 70.64 159.42 69.78 155.75 69.28 153.64 68.64 150.92 68.64 148.8 73.64 154.11 76.64 151.99 80.64 157.3 83.64 156.15 87.64 159.42 91.64 157.3 95.17 158.24 95.64 158.36 98.64 154.11 104.64 155.18 110.64 151.99"/><polygon class="cls-3" points="108.64 155.61 107.22 159.87 104.64 162.61 104.59 162.58 100.64 160.02 96.64 163.68 91.64 162.61 86.64 165.8 83.64 161.55 78.64 163.68 75.64 158.36 70.64 159.42 69.78 155.75 71.64 157.61 74.64 155.61 78.64 160.61 81.64 159.53 85.64 162.61 89.64 160.61 93.17 161.49 93.64 161.61 96.64 157.61 102.64 158.61 108.64 155.61"/></g><rect class="cls-5" x="94.5" y="170" width="17" height="80"/><ellipse class="cls-6" cx="121.5" cy="112.5" rx="45" ry="56.5"/><path class="cls-7" d="M168.48,111.26c0-.58,0-1.16,0-1.74-.64-15.72-6.28-29.82-15-39.88a48.72,48.72,0,0,0-4.31-4.42,45.8,45.8,0,0,0-4.67-3.74,43.53,43.53,0,0,0-4.13-2.57,38.53,38.53,0,0,0-34.76-1.46l-.59.27c-.77.36-1.54.75-2.3,1.16-.47.26-.93.52-1.39.8-.21.12-.42.24-.62.38a1,1,0,0,0-.17.1c-.38.24-.76.48-1.14.74-.77.5-1.52,1-2.26,1.61l-.27.2-.66.51-1,.81c-.56.48-1.12,1-1.66,1.47l-.09.09c-.46.43-.92.87-1.37,1.32s-1,1-1.4,1.46-.89,1-1.32,1.49a59.13,59.13,0,0,0-9.22,14.87q-.67,1.53-1.26,3.12A70.26,70.26,0,0,0,74.5,112.5c0,20,8.09,37.67,20.42,48.22q.75.66,1.53,1.26c.53.42,1.07.82,1.61,1.21.81.58,1.62,1.13,2.46,1.65s1.44.88,2.18,1.28,1.53.8,2.3,1.16c1.08.51,2.17,1,3.29,1.37a38.7,38.7,0,0,0,6.72,1.79,36.63,36.63,0,0,0,5,.53c.44,0,.89,0,1.34,0h.11c.58,0,1.16,0,1.73-.05,1.16,0,2.3-.15,3.44-.3,22.18-3,39.77-25.36,41.66-53.16,0-.59.07-1.19.1-1.78,0-1.06.07-2.13.07-3.21C168.5,112.09,168.5,111.67,168.48,111.26Zm-4,1.24c0,.78,0,1.57,0,2.34,0,.54,0,1.07-.08,1.59-1.35,24.09-15,43.85-33.13,49.16a32,32,0,0,1-3.35.81c-1,.19-2,.34-3.08.44s-2.2.16-3.32.16a34.38,34.38,0,0,1-11.4-1.94l-.62-.22c-.78-.29-1.55-.6-2.31-.94s-1.46-.68-2.17-1.06c-.46-.24-.92-.49-1.37-.75h0c-.94-.55-1.87-1.13-2.77-1.76-.54-.38-1.08-.77-1.61-1.18s-1-.81-1.53-1.24l-1.1-1,0,0c-11-9.88-18.09-26.1-18.09-44.43A66,66,0,0,1,83.9,86q.72-1.65,1.53-3.21a53.71,53.71,0,0,1,7.11-10.61c.43-.5.87-1,1.32-1.46s.92-1,1.4-1.43,1.15-1.09,1.74-1.61l.07-.06c.34-.3.68-.6,1-.88.53-.44,1.08-.87,1.63-1.28h0c.2-.16.41-.31.62-.45.49-.36,1-.7,1.48-1,1-.64,2-1.24,3-1.79l.12-.06.07,0q1-.54,2.1-1h0c.41-.19.82-.37,1.24-.54l1-.4A34.47,34.47,0,0,1,133.09,60a36.47,36.47,0,0,1,4.42,1.89l.73.38h0a42.72,42.72,0,0,1,4.6,2.9C155,74,163.39,90.07,164.39,108.73c0,.52.06,1,.07,1.58C164.49,111,164.5,111.77,164.5,112.5Z"/><ellipse class="cls-6" cx="88.5" cy="112.5" rx="45" ry="56.5"/><path class="cls-7" d="M135.49,112.07c0-1.59-.06-3.16-.17-4.72,0-.44-.07-.88-.11-1.32a68.93,68.93,0,0,0-1.74-10.52c-.23-1-.48-1.93-.76-2.88A64.5,64.5,0,0,0,127,79c-.33-.58-.66-1.14-1-1.7a54.66,54.66,0,0,0-3.91-5.67c-.44-.56-.89-1.12-1.36-1.66-.81-1-1.66-1.9-2.54-2.79-.5-.51-1-1-1.52-1.49l-.26-.24c-.45-.41-.9-.81-1.36-1.2a48,48,0,0,0-4-3.12c-.52-.35-1-.69-1.56-1-.72-.45-1.44-.88-2.18-1.28s-1.36-.71-2-1l-.25-.12A38.67,38.67,0,0,0,88.5,54a39.19,39.19,0,0,0-19.11,5c-1.09.61-2.16,1.27-3.21,2s-2,1.44-3,2.23c-13,10.42-21.65,28.6-21.65,49.25,0,27.27,15.07,50.24,35.39,56.69q1.39.45,2.82.78c.4.1.81.19,1.22.26.82.18,1.65.32,2.49.43.43.06.87.11,1.31.15.87.09,1.75.15,2.63.17l1.14,0a38.67,38.67,0,0,0,16.5-3.72l.92-.44q.69-.34,1.38-.72l.55-.3c.55-.32,1.09-.64,1.63-1l.18-.11c15.12-9.53,25.57-28.94,25.83-51.36,0-.29,0-.58,0-.87C135.5,112.36,135.5,112.21,135.49,112.07Zm-4,.43v.59c-.18,21.73-10.4,40.42-25.06,49-.48.27-1,.54-1.44.79l-.38.2c-.59.3-1.19.59-1.79.86l-.14.06c-.71.32-1.44.61-2.17.88a34.13,34.13,0,0,1-6.31,1.68,33.06,33.06,0,0,1-4,.43c-.57,0-1.14.05-1.71.05s-1.36,0-2-.06a34.5,34.5,0,0,1-7.4-1.26,32.64,32.64,0,0,1-3.61-1.23,38.63,38.63,0,0,1-3.91-1.84c-15.32-8.34-26-27.64-26-50.11,0-21.85,10.15-40.7,24.8-49.39,1-.61,2.06-1.16,3.12-1.66a32.41,32.41,0,0,1,3.35-1.39,34.46,34.46,0,0,1,20.45-.94c1,.27,2.07.59,3.08,1l.22.08c.75.28,1.5.58,2.23.91l.08,0c.7.31,1.39.65,2.07,1l.1,0,.44.23a39.79,39.79,0,0,1,4,2.5c.65.46,1.28.93,1.91,1.43s1.09.89,1.62,1.36,1,.92,1.52,1.4.9.88,1.33,1.33q1.5,1.56,2.86,3.27c.87,1.09,1.71,2.22,2.5,3.4.28.41.56.83.82,1.25s.67,1.07,1,1.62a58.8,58.8,0,0,1,4.38,9.26c.41,1.06.78,2.15,1.12,3.25a65.33,65.33,0,0,1,2.62,12.82c.07.57.12,1.15.17,1.74.11,1.5.18,3,.2,4.56C131.5,111.89,131.5,112.19,131.5,112.5Z"/><ellipse class="cls-6" cx="133.5" cy="118.5" rx="47" ry="56.5"/><path class="cls-7" d="M182.48,116.82c-.64-27-16.69-49.49-38-55.34a41,41,0,0,0-5.42-1.1l-.28,0A40.14,40.14,0,0,0,133.5,60h-.41a41.7,41.7,0,0,0-16.15,3.43c-.62.27-1.24.55-1.85.85l-.4.19-.17.08-1.35.71-.65.37a2.07,2.07,0,0,0-.25.15l-.92.53c-.9.55-1.78,1.13-2.65,1.74-.53.37-1,.76-1.57,1.15-.07.06-.15.11-.22.18a50.47,50.47,0,0,0-6,5.41c-.46.48-.91,1-1.35,1.49s-.87,1-1.28,1.52C89.78,88.34,84.5,102.7,84.5,118.5a65.14,65.14,0,0,0,12.09,38.43l0,0c.28.4.58.79.88,1.18s.82,1,1.24,1.55.86,1,1.31,1.52q1.11,1.25,2.28,2.4l.37.36c.51.49,1,1,1.56,1.46s1.11,1,1.67,1.42c.78.63,1.57,1.23,2.37,1.81a45.35,45.35,0,0,0,8.09,4.66c.75.34,1.51.66,2.28.95s1.64.6,2.48.86A41.45,41.45,0,0,0,133.5,177c23.61,0,43.37-20,48-46.6.24-1.4.44-2.81.6-4.24q.31-2.86.39-5.81c0-.62,0-1.23,0-1.85S182.49,117.38,182.48,116.82Zm-4.27,7.84C175.69,151.86,156.63,173,133.5,173a37,37,0,0,1-8.38-.95c-.82-.18-1.64-.4-2.44-.64-.43-.13-.86-.26-1.29-.41s-.63-.21-.94-.33a40,40,0,0,1-4.88-2.16,44.81,44.81,0,0,1-5.47-3.45l-.44-.33c-.56-.42-1.12-.86-1.66-1.32s-1-.89-1.56-1.36a45.86,45.86,0,0,1-3.77-3.86c-.45-.51-.89-1-1.31-1.55s-.84-1.06-1.25-1.6A61.2,61.2,0,0,1,88.5,118.5C88.5,104,93.21,90.73,100.89,81c.41-.54.84-1.07,1.28-1.58s.88-1,1.34-1.51a46.54,46.54,0,0,1,7-6.22c.63-.46,1.28-.9,1.94-1.32l.13-.08q.95-.61,1.92-1.17l1.26-.68.56-.28.45-.22c.4-.2.81-.39,1.22-.57l.25-.11.72-.31c.79-.32,1.58-.62,2.39-.89a37.55,37.55,0,0,1,12.16-2c.49,0,1,0,1.46,0a37,37,0,0,1,7.89,1.15,38.19,38.19,0,0,1,5.2,1.73,41.53,41.53,0,0,1,5.41,2.73c13.65,8.2,23.38,24.55,24.85,43.8q.1,1.4.15,2.82c0,.74,0,1.49,0,2.24q0,1.4-.06,2.76C178.4,122.41,178.32,123.54,178.21,124.66Zm-65.9-54.44a12.75,12.75,0,0,0-1.61-1.12c-.35.24-.69.47-1,.72s-.56.4-.83.61a47.33,47.33,0,0,0-6.57,5.89q-.69.74-1.35,1.5c.43.51.84,1,1.25,1.56.44-.52.88-1,1.34-1.51a46.54,46.54,0,0,1,7-6.22c.63-.46,1.28-.9,1.94-1.32l.13-.08Z"/><ellipse class="cls-6" cx="67.5" cy="117.5" rx="47" ry="56.5"/><path class="cls-7" d="M103.51,77.87c-.4-.53-.82-1-1.24-1.55s-.86-1-1.31-1.52a53.65,53.65,0,0,0-4-4.07l-.34-.3c-.43-.38-.87-.75-1.31-1.11s-1-.83-1.55-1.22-1.08-.81-1.63-1.19c-.26-.19-.52-.37-.79-.54-.66-.44-1.32-.86-2-1.25A.52.52,0,0,0,89.1,65c-.64-.39-1.29-.75-1.95-1.1l-1-.5a42.21,42.21,0,0,0-9.39-3.35c-1.18-.28-2.39-.5-3.61-.67s-2.5-.29-3.77-.34c-.63,0-1.26,0-1.89,0-27,0-49,26.24-49,58.5s22,58.5,49,58.5a41.57,41.57,0,0,0,14.16-2.49c.75-.27,1.5-.57,2.24-.89s1.39-.6,2.07-.93c.47-.23.93-.47,1.39-.71,1.18-.63,2.34-1.31,3.48-2s2.28-1.55,3.37-2.41a46.36,46.36,0,0,0,3.85-3.33c.49-.46,1-.93,1.44-1.42l.54-.57.81-.88.54-.61c.44-.5.87-1,1.28-1.52,8.55-10.53,13.83-24.89,13.83-40.69C116.5,102.23,111.57,88.3,103.51,77.87Zm-5.8,80-.22.23c-.37.41-.75.81-1.13,1.2s-1,.94-1.44,1.39a44.32,44.32,0,0,1-8.45,6.22c-1.08.6-2.18,1.16-3.3,1.66-.25.12-.5.23-.76.33-.67.29-1.35.56-2,.8l-.66.24c-.52.18-1,.34-1.57.49A37.35,37.35,0,0,1,67.5,172c-24.85,0-45-24.4-45-54.5,0-28.32,17.84-51.6,40.65-54.25Q65,63,66.81,63h.69c.94,0,1.88,0,2.8.11a37.68,37.68,0,0,1,10.4,2.27c.82.31,1.64.64,2.44,1,.32.13.63.28.94.43s.8.39,1.2.6q1,.51,2,1.08c.72.43,1.43.88,2.13,1.36.55.36,1.1.75,1.63,1.15s1,.79,1.55,1.2c.85.69,1.68,1.42,2.49,2.18l.78.74c.87.86,1.72,1.75,2.52,2.68.45.51.89,1,1.31,1.55s.84,1.06,1.25,1.6A61.2,61.2,0,0,1,112.5,117.5c0,14.55-4.71,27.77-12.39,37.54-.41.54-.84,1.07-1.28,1.58S98.08,157.49,97.71,157.9Zm3.21-80.08c-.42-.52-.86-1-1.31-1.53-1-1.13-2-2.22-3.13-3.24a16.8,16.8,0,0,1-.67,2.08c.87.86,1.72,1.75,2.52,2.68.45.51.89,1,1.31,1.55s.84,1.06,1.25,1.6c.41-.54.84-1.07,1.28-1.58C101.76,78.85,101.35,78.33,100.92,77.82Z"/><ellipse class="cls-6" cx="102.5" cy="120.5" rx="41" ry="58.5"/><path class="cls-7" d="M145.25,113.91c0-.45-.07-.91-.11-1.36-.15-1.59-.34-3.16-.58-4.72-.06-.45-.13-.9-.21-1.34a77.9,77.9,0,0,0-2.58-10.79c-.21-.66-.43-1.32-.66-2h0A67.35,67.35,0,0,0,136,82.43c-.42-.72-.84-1.42-1.29-2.12s-.87-1.36-1.33-2a49.66,49.66,0,0,0-8.2-9.29,40.59,40.59,0,0,0-3.83-3c-.7-.48-1.41-.93-2.12-1.35s-1.51-.85-2.28-1.23a33.69,33.69,0,0,0-5.9-2.27c-.86-.24-1.73-.45-2.61-.61a28.47,28.47,0,0,0-3-.42l-.67-.06q-.61,0-1.23-.06h-1c-.6,0-1.21,0-1.81.06l-.39,0a28.57,28.57,0,0,0-3.33.41l-.63.12c-.54.1-1.07.22-1.61.36s-1.14.3-1.7.48a33,33,0,0,0-5.88,2.46c-.7.37-1.39.76-2.07,1.2s-1.3.82-1.94,1.28-1.33,1-2,1.49a48.69,48.69,0,0,0-9.53,10.4,62.56,62.56,0,0,0-6.37,11.83c-.42,1-.81,2-1.18,3.09a81.12,81.12,0,0,0-4.58,27.3c0,15.85,4.28,30.79,12,42.11l.08.11c.8,1.16,1.63,2.27,2.48,3.32s1.82,2.16,2.78,3.15c.41.44.83.86,1.25,1.27s1.12,1.06,1.7,1.56,1.21,1,1.82,1.49A33.6,33.6,0,0,0,102.5,181a33.16,33.16,0,0,0,18.64-5.88c.69-.47,1.38-1,2.06-1.49s1.29-1,1.92-1.58,1-.92,1.55-1.4c.8-.78,1.59-1.59,2.37-2.44s1.49-1.71,2.21-2.62,1.43-1.87,2.12-2.87c7.82-11.33,12.13-26.32,12.13-42.22Q145.5,117.17,145.25,113.91ZM122.53,169c-.68.6-1.38,1.16-2.08,1.69l-.4.3q-.76.57-1.56,1.08c-.69.45-1.39.87-2.11,1.26A28.42,28.42,0,0,1,102.5,177,29.21,29.21,0,0,1,86,171.69c-.42-.28-.83-.57-1.24-.88l-.61-.47q-.87-.66-1.71-1.41c-.22-.18-.43-.37-.63-.56-.93-.84-1.83-1.74-2.71-2.69C69.62,155.37,63.5,139,63.5,120.5a76.21,76.21,0,0,1,5.56-29.1c.45-1.09.93-2.15,1.43-3.18,4.17-8.66,10-15.54,16.74-19.72.64-.4,1.29-.77,2-1.12s1.4-.7,2.11-1,1.41-.58,2.12-.82l.13,0a25.74,25.74,0,0,1,2.56-.74l.47-.11.52-.11.85-.16a27.33,27.33,0,0,1,3-.33l.91,0h.66a27.74,27.74,0,0,1,6.94.89,28.18,28.18,0,0,1,2.83.9l1,.4c.43.19.86.38,1.29.59.22.09.43.2.65.31.51.25,1,.52,1.51.81a31,31,0,0,1,2.94,1.88l.45.32c.67.49,1.33,1,2,1.57a42.35,42.35,0,0,1,5.56,5.7c.47.57.93,1.16,1.37,1.76A59.51,59.51,0,0,1,137,94c.28.79.56,1.59.83,2.4a73.92,73.92,0,0,1,2.46,9.88c.08.43.16.87.22,1.3.26,1.56.46,3.13.62,4.74,0,.43.09.87.12,1.31q.28,3.38.29,6.87c0,19.18-6.6,36.13-16.68,46.34C124.07,167.6,123.31,168.31,122.53,169Z"/><polygon class="cls-8" points="53.2 136.38 50.05 136.13 48.77 136.03 44.4 135.69 36.82 135.09 35.61 134.99 40.61 127.72 43.82 123.06 45.61 120.45 49.4 128.42 53.2 136.38"/><polygon class="cls-9" points="50.05 136.13 48.77 136.03 44.4 135.69 36.82 135.09 35.61 134.99 40.61 127.72 43.82 123.06 46.93 129.6 50.05 136.13"/><polygon class="cls-8" points="168.85 134 165.88 134.12 160.03 134.36 151.22 134.72 155.31 126.91 158.06 121.66 159.4 119.09 164.12 126.54 168.85 134"/><polygon class="cls-9" points="165.88 134.12 160.03 134.36 151.22 134.72 155.31 126.91 158.06 121.66 161.95 127.87 165.88 134.12"/><rect class="cls-10" x="30.71" y="138.61" width="16.53" height="8.03" rx="4.02" transform="translate(12.43 -2.83) rotate(4.94)"/><rect class="cls-10" x="154.7" y="138.89" width="16.53" height="8.03" rx="4.02" transform="translate(-20.67 27.76) rotate(-9.16)"/><path class="cls-5" d="M102.25,59H91L79.6,35.91c-.47-1,.79-1.91,2.54-1.91l22.32,2c1.35,0,2.18.24,2,1Z"/><path class="cls-11" d="M103.5,60h-10L83.34,37.84C82.92,36.91,84,36,85.6,36h19.66c1.2,0,2.13.64,2,1.37Z"/><g class="cls-12"><path d="M58.82,95.1l26.33-9.52a18,18,0,0,0,10.8-23L69.62,72.05a18,18,0,0,0-10.8,23Z"/><path d="M117,85l15,9.7c5.31,3.44,12.65,1.54,16.41-4.24l-14.95-9.7C128.09,77.3,120.74,79.2,117,85Z"/><path d="M138.49,40.92h0a0,0,0,0,1,0,0v3.56a32,32,0,0,1-32,32h0a0,0,0,0,1,0,0V72.92A32,32,0,0,1,138.49,40.92Z" transform="translate(45.77 -53.39) rotate(30)"/><path d="M199.5,173.59v5.13a47.18,47.18,0,0,1-5.36-5.76,41.86,41.86,0,0,1-8.57-17.21,27.26,27.26,0,0,1-.11-11.5,21.55,21.55,0,0,0,.09-8.59,31.61,31.61,0,0,0-3.47-9.5c-.16,1.43-.36,2.84-.6,4.24a29.24,29.24,0,0,0-1.55-3.13,23,23,0,0,0-1.72-2.61,21.91,21.91,0,0,0-2.84-3.14,19.32,19.32,0,0,0-7-4c-.62-.21-1.28-.4-2-.59s-1.29-.32-2-.47c-3.91-.85-8.82-1.43-15.32-2.15-1.36-.15-2.62-.27-3.81-.37l-2-.16-2-.12c-1.59-.1-3-.16-4.3-.21l-1.42,0-2-.11c-.69,0-1.35-.1-2-.17a16.67,16.67,0,0,1-8.92-3.39c-7-5.24-9.4-13.47-10.13-16.76a27.72,27.72,0,0,1,.17-12.28c.54-2.8.79-4.35,0-6.18a7.9,7.9,0,0,0-2.13-2.83,12.48,12.48,0,0,0-1.66-1.22,17.66,17.66,0,0,0-1.93-1,37.09,37.09,0,0,0-8.81-2.62l-1-.17-.24,0c-.45-.08-.9-.15-1.33-.2L95,66.27a2.94,2.94,0,0,1-1.53-.68l0,0a3,3,0,0,1-1-1.75h0a3.3,3.3,0,0,1,0-.89A2.84,2.84,0,0,1,93,61.45a3,3,0,0,1,2.08-1.15,3.89,3.89,0,0,1,.68,0l.47.07.71.1c.83.12,1.63.26,2.41.41,1,.18,1.91.37,2.8.58l.25.07c.67.16,1.32.33,1.95.52a4.13,4.13,0,0,1,.5.15l.56.17a27.86,27.86,0,0,1,7.08,3.25l.79.55c.34.25.65.5,1,.76a15.64,15.64,0,0,1,1.48,1.45,13.17,13.17,0,0,1,1.48,2,12.62,12.62,0,0,1,.91,1.75,10.34,10.34,0,0,1,.54,1.56,14.66,14.66,0,0,1,.07,6.87l-.24,1.25c-.09.48-.19,1-.27,1.47,0,0,0,.07,0,.1-.12.71-.23,1.45-.3,2.22a19.3,19.3,0,0,0,.4,6.07c.45,2.06,2.35,9.1,7.87,13.24a10.35,10.35,0,0,0,5.1,2.12c.61.1,1.28.16,2,.21s1.28.09,2,.12l1.83.08,3.32.15,2,.11,2.05.14c1.56.12,3.27.28,5.15.49,5.75.63,10.58,1.17,14.75,2,.69.14,1.37.28,2,.44s1.35.33,2,.51a26.74,26.74,0,0,1,10,5c.32.26.63.53.94.81s.74.69,1.09,1.05a25.51,25.51,0,0,1,2,2.23,36.09,36.09,0,0,1,6.86,15.39,27.4,27.4,0,0,1-.07,10.68,21.21,21.21,0,0,0,.06,9.24,36.28,36.28,0,0,0,7.42,14.78A37.47,37.47,0,0,0,199.5,173.59Z"/><path d="M199.5,170v8.68a47.18,47.18,0,0,1-5.36-5.76,41.86,41.86,0,0,1-8.57-17.21,27.26,27.26,0,0,1-.11-11.5,21.55,21.55,0,0,0,.09-8.59,31.61,31.61,0,0,0-3.47-9.5,24.4,24.4,0,0,0-1.76-2.7,22.59,22.59,0,0,0-1.88-2.2c-.3-.31-.63-.63-1-.93a20.37,20.37,0,0,0-9-4.62c-.63-.18-1.29-.34-2-.49s-1.3-.26-2-.38c-3.55-.65-7.87-1.15-13.29-1.75-2.24-.25-4.24-.42-6-.54l-2-.13-2-.1-2.07-.08c-1.27,0-2.44-.1-3.53-.17-.69,0-1.35-.1-2-.18a17.61,17.61,0,0,1-2-.31,16,16,0,0,1-6.79-3.07c-7-5.24-9.41-13.46-10.13-16.76a27.57,27.57,0,0,1,.17-12.28c.54-2.8.79-4.35,0-6.18a8.1,8.1,0,0,0-2.3-3l-.13-.11a12.75,12.75,0,0,0-1.61-1.12,17.89,17.89,0,0,0-2-1,38.22,38.22,0,0,0-8.64-2.51l-.32-.06h0c-.89-.16-1.76-.29-2.61-.41h-.05l-.43-.1a3.21,3.21,0,0,1-.54-.22,2.9,2.9,0,0,1-.9-.73,2.7,2.7,0,0,1-.53-1,.13.13,0,0,1,0-.08,2.92,2.92,0,0,1-.11-1.29,2.61,2.61,0,0,1,.2-.74,3.14,3.14,0,0,1,.38-.67,1.46,1.46,0,0,1,.16-.19,2.93,2.93,0,0,1,2-1,3.11,3.11,0,0,1,.68,0c1.18.16,2.32.34,3.41.54.56.11,1.11.21,1.64.33l.47.1.87.19c1,.24,1.94.5,2.84.78h0l0,0a28.37,28.37,0,0,1,7.5,3.38l.67.47c.39.29.76.58,1.12.89a15.08,15.08,0,0,1,1.5,1.49,13.91,13.91,0,0,1,1.72,2.45c.07.12.13.24.19.36s.26.52.37.79a11.88,11.88,0,0,1,.78,2.59,13,13,0,0,1,.14,3.56c-.05.61-.14,1.21-.24,1.8s-.2,1.16-.31,1.73c0,.24-.09.48-.14.72a29,29,0,0,0-.46,3.11,18.26,18.26,0,0,0-.06,2.48,20.35,20.35,0,0,0,.46,3.55c.45,2.06,2.35,9.1,7.87,13.24a10.38,10.38,0,0,0,2.82,1.57,11.28,11.28,0,0,0,2.06.52c.62.1,1.28.17,2,.23,1.14.09,2.46.14,4,.21l1,0,2,.09,2.06.12c2.15.13,4.62.32,7.48.64,4.77.53,8.91,1,12.56,1.6.7.11,1.37.23,2,.36s1.37.28,2,.43a30.58,30.58,0,0,1,9.87,3.92A23,23,0,0,1,180.4,115c.38.29.75.61,1.11.94s.66.61,1,.93c6.24,6.23,8.34,14.4,9,17.74a27.55,27.55,0,0,1-.07,10.67,21.34,21.34,0,0,0,.05,9.24,36.26,36.26,0,0,0,7.43,14.79Z"/><path d="M58.93,92.4l26.33-9.52A18,18,0,0,0,96.07,59.82L69.74,69.35A18,18,0,0,0,58.93,92.4Z"/><path d="M117.11,82.54l15,9.7a11.45,11.45,0,0,0,15.84-3.38l-15-9.69a11.44,11.44,0,0,0-15.84,3.37Z"/></g><path class="cls-13" d="M59.82,92l26.33-9.53a18,18,0,0,0,10.8-23L70.62,68.94a18,18,0,0,0-10.8,23Z"/><path class="cls-13" d="M118,81.88l15,9.7c5.31,3.44,12.65,1.54,16.41-4.25l-14.95-9.7c-5.31-3.44-12.66-1.54-16.41,4.25Z"/><path class="cls-13" d="M139.49,37.81h0a0,0,0,0,1,0,0v3.56a32,32,0,0,1-32,32h0a0,0,0,0,1,0,0V69.81A32,32,0,0,1,139.49,37.81Z" transform="translate(44.34 -54.31) rotate(30)"/><path class="cls-13" d="M200.5,170.48v8.14A46.58,46.58,0,0,1,193,171a41.9,41.9,0,0,1-8.58-17.22,27.22,27.22,0,0,1-.11-11.49,21.53,21.53,0,0,0,.1-8.59c-.55-2.9-2.43-10.22-8.07-15.33-5.22-4.73-11.84-5.64-26.31-7.24-5.19-.57-9.05-.73-12.15-.86-6.17-.25-9.89-.4-14.33-3.72-7-5.24-9.4-13.47-10.13-16.76a27.72,27.72,0,0,1,.17-12.28c.54-2.8.79-4.35,0-6.18-2.19-5.11-10.81-7.29-17.65-8.21a3,3,0,0,1,.13-6,3.89,3.89,0,0,1,.68,0c12.36,1.68,19.67,5.53,22.35,11.8,1.55,3.61,1,6.69.37,9.68a22,22,0,0,0-.19,9.86c.45,2.06,2.35,9.1,7.87,13.24,2.94,2.2,5.12,2.29,11,2.53,3.2.13,7.17.29,12.56.89,14.23,1.57,22.81,2.52,29.69,8.75s9.28,15.17,9.93,18.67a27.4,27.4,0,0,1-.07,10.68,21.21,21.21,0,0,0,.06,9.24,36.28,36.28,0,0,0,7.42,14.78A37.47,37.47,0,0,0,200.5,170.48Z"/><path class="cls-14" d="M200.5,166.93v8.68a47.18,47.18,0,0,1-5.36-5.76,41.86,41.86,0,0,1-8.57-17.21,27.26,27.26,0,0,1-.11-11.5,21.55,21.55,0,0,0,.09-8.59c-.55-2.9-2.43-10.21-8.07-15.33-5.22-4.73-11.83-5.64-26.31-7.24-5.19-.57-9-.73-12.15-.85-6.17-.25-9.89-.41-14.32-3.73-7-5.24-9.41-13.46-10.13-16.76a27.57,27.57,0,0,1,.17-12.28c.54-2.8.79-4.35,0-6.18-2.19-5.11-10.8-7.28-17.64-8.21a3,3,0,0,1-2-4.78A3,3,0,0,1,98.9,56c12.36,1.67,19.67,5.52,22.36,11.79,1.54,3.61.95,6.7.37,9.68a21.86,21.86,0,0,0-.2,9.86c.45,2.06,2.35,9.1,7.87,13.24,2.94,2.21,5.12,2.29,11,2.53,3.2.13,7.17.29,12.57.89,14.22,1.57,22.8,2.52,29.68,8.76s9.28,15.16,9.94,18.67a27.55,27.55,0,0,1-.07,10.67,21.34,21.34,0,0,0,.05,9.24,36.26,36.26,0,0,0,7.43,14.79Z"/><path class="cls-14" d="M140.5,38h0a0,0,0,0,1,0,0v0a32,32,0,0,1-32,32h0a0,0,0,0,1,0,0v0A32,32,0,0,1,140.5,38Z" transform="matrix(0.87, 0.5, -0.5, 0.87, 43.68, -55.02)"/><path class="cls-14" d="M59.93,89.29l26.33-9.53A18,18,0,0,0,97.07,56.71L70.74,66.24A18,18,0,0,0,59.93,89.29Z"/><path class="cls-14" d="M118.11,79.43l15,9.7a11.45,11.45,0,0,0,15.84-3.38l-15-9.7a11.45,11.45,0,0,0-15.84,3.38Z"/><rect class="cls-5" x="0.5" y="196" width="200" height="15"/><path class="cls-15" d="M111.5,213.14V250H13.07A12.57,12.57,0,0,1,.5,237.43V196H65.33l6.16,5.8,9.43,8.89.27.31.45.52,4.53,5.28,7.24,8.44,1.09,1.27.32.37a3,3,0,0,0,.31.31,3.48,3.48,0,0,0,5-.35l.88-1.06,7.45-9Z"/><polygon class="cls-15" points="195.5 196 195.5 211 113.28 211 113.85 210.31 128.36 196 195.5 196"/><path class="cls-16" d="M200.5,194v43.43c0,.22,0,.43,0,.65s0,.42,0,.63a6,6,0,0,1-.08.61,4.5,4.5,0,0,1-.11.64c0,.2-.08.4-.14.6a11.64,11.64,0,0,1-1.09,2.79c-.17.32-.35.64-.55.94l-.31.45a12.87,12.87,0,0,1-1.77,2l0,0q-.4.36-.84.69c-.28.22-.58.42-.89.62l-.46.28-.5.27-.46.22,0,0-.47.2c-.33.14-.67.26-1,.37a13.09,13.09,0,0,1-1.67.39c-.26.05-.52.08-.79.11s-.42,0-.63,0l-.65,0H13.07A12.57,12.57,0,0,1,.5,237.43V194H70.33l2.12,2,6.16,5.8,3,2.86,4.28,4,2,2.31,5,5.8,1.62,1.88,2.21,2.58,1.7,2,.23.27,1.18,1.37a3.42,3.42,0,0,0,1.19.9,3.49,3.49,0,0,0,4.12-.94l6.37-7.67.3-.37,4.82-5.8,2.23-2.69,6.6-6.51,2-2,3.85-3.8,2-2Z"/><polygon class="cls-8" points="123.5 146.19 121.5 152.56 120.08 154.07 117.5 156.81 117.45 156.78 113.5 154.22 109.5 157.88 104.5 156.81 99.5 160 96.5 155.75 91.5 157.88 88.5 152.56 83.5 153.62 82.64 149.95 82.14 147.84 81.5 145.12 81.5 143 86.5 148.31 89.5 146.19 93.5 151.5 96.5 150.35 100.5 153.62 104.5 151.5 108.03 152.44 108.5 152.56 111.5 148.31 117.5 149.38 123.5 146.19"/><polygon class="cls-9" points="121.5 149.81 120.08 154.07 117.5 156.81 117.45 156.78 113.5 154.22 109.5 157.88 104.5 156.81 99.5 160 96.5 155.75 91.5 157.88 88.5 152.56 83.5 153.62 82.64 149.95 84.5 151.81 87.5 149.81 91.5 154.81 94.5 153.73 98.5 156.81 102.5 154.81 106.03 155.69 106.5 155.81 109.5 151.81 115.5 152.81 121.5 149.81"/></g></g></svg>
