<svg xmlns="http://www.w3.org/2000/svg" viewBox="0 0 200 250"><defs><style>.cls-1{fill:#c44e79;}.cls-2{opacity:0.22;}.cls-3{opacity:0.07;}.cls-4,.cls-7{opacity:0.58;}.cls-14,.cls-5{opacity:0.6;}.cls-6{fill:#68997c;}.cls-7,.cls-8{fill:#5d896f;}.cls-9{fill:#486855;}.cls-10{fill:#d9e2dd;}.cls-11{fill:#0d0f0e;}.cls-12{fill:#d0d6d3;}.cls-13{fill:#c6ad34;}.cls-14{fill:#c68dc4;}.cls-15{fill:#594527;}.cls-16{fill:#597f69;}</style></defs><g id="Layer_2" data-name="Layer 2"><g id="Layer_1-2" data-name="Layer 1"><rect class="cls-1" width="200" height="250" rx="12.57"/><g class="cls-2"><path d="M173.65,227.44V248a19.23,19.23,0,0,1-.11,2H24.19A18.31,18.31,0,0,1,21,239.66V219.12a62.76,62.76,0,0,1,12.32-37.46A63,63,0,0,1,50.58,170a63.24,63.24,0,0,1,26.19-5.67h33.76a62.85,62.85,0,0,1,11.22,1l1.83.36.94.2q.87.19,1.74.42c.58.15,1.16.3,1.73.47l1.94.59s.06,0,.08,0c.86.27,1.71.57,2.55.88.68.25,1.35.52,2,.8s1.59.67,2.37,1c1.68.78,3.33,1.63,4.93,2.55a63.46,63.46,0,0,1,18.44,16c.91,1.17,1.79,2.37,2.62,3.61s1.48,2.28,2.16,3.46c.81,1.39,1.57,2.81,2.26,4.26A62.58,62.58,0,0,1,173.65,227.44Z"/><path class="cls-3" d="M160.32,188.64c-1.64,3.84-2.67,6.94-7.09,17.77-5,12.29-5.88,13.64-8,20-.7,2.09-1.28,3.84-1.79,5.43a73.72,73.72,0,0,0-2.21,8.57c-.59,3.07-.87,5.38-1.1,7.53-.08.7-.15,1.38-.23,2.06H127.29c1.59-9.72-2.06-29.59-2.06-29.59-2.89-15.73-.57-29,1-38a103.4,103.4,0,0,1,2.85-12.11q.45-1.5.93-2.91c.86.27,1.71.57,2.55.88.68.25,1.35.52,2,.8s1.59.67,2.37,1c1.68.78,3.33,1.63,4.93,2.55A63.46,63.46,0,0,1,160.32,188.64Z"/><path class="cls-4" d="M141.65,126.82V150.6a21.24,21.24,0,0,1-.13,2.41h0a21.73,21.73,0,0,1-19.58,12.3h-.18a62,62,0,0,1,10.81,3,21.61,21.61,0,0,1-12.63,4H60.37A21.61,21.61,0,0,1,50.58,170a62.23,62.23,0,0,1,15-4.67H62.37A21.73,21.73,0,0,1,40.65,143.6V119.82a51.07,51.07,0,0,1,1.12-10.71h0a51.51,51.51,0,0,1,99.88,17.72Z"/><path d="M167.25,71.65h.4a0,0,0,0,1,0,0v10A2.65,2.65,0,0,1,165,84.32h-.4a0,0,0,0,1,0,0v-10A2.65,2.65,0,0,1,167.25,71.65Z" transform="translate(116.15 -98.6) rotate(49.05)"/><path d="M166.66,69.32h.61a0,0,0,0,1,0,0V78a4,4,0,0,1-4,4h-.61a0,0,0,0,1,0,0V73.32A4,4,0,0,1,166.66,69.32Z" transform="translate(329.92 151.32) rotate(-180)"/><path d="M16.31,70.35h0A2.65,2.65,0,0,1,19,73v8.35a0,0,0,0,1,0,0h0a2.65,2.65,0,0,1-2.65-2.65V70.35a0,0,0,0,1,0,0Z" transform="matrix(-0.66, 0.76, -0.76, -0.66, 86.48, 112.24)"/><path d="M16.65,68.32h0a4,4,0,0,1,4,4v7a0,0,0,0,1,0,0h0a4,4,0,0,1-4-4v-7A0,0,0,0,1,16.65,68.32Z"/><path d="M22.07,76.32h0A27.58,27.58,0,0,1,49.65,103.9v25a4.42,4.42,0,0,1-4.42,4.42h0a27.58,27.58,0,0,1-27.58-27.58v-25A4.42,4.42,0,0,1,22.07,76.32Z"/><path d="M22,89.32h0a22.81,22.81,0,0,1,22.81,22.81v21.93a0,0,0,0,1,0,0h0A22.81,22.81,0,0,1,22,111.26V89.32a0,0,0,0,1,0,0Z"/><path d="M143.65,119.82V143.6a21.79,21.79,0,0,1-2.13,9.41h0a21.73,21.73,0,0,1-19.58,12.3H62.37A21.73,21.73,0,0,1,40.65,143.6V119.82a51.07,51.07,0,0,1,1.12-10.71h0a51.5,51.5,0,0,1,101.88,10.72Z"/><path d="M161.23,78.32h0a4.42,4.42,0,0,1,4.42,4.42v25a27.58,27.58,0,0,1-27.58,27.58h0a4.42,4.42,0,0,1-4.42-4.42v-25A27.58,27.58,0,0,1,161.23,78.32Z" transform="translate(299.29 213.65) rotate(-180)"/><path d="M162.65,89h0a0,0,0,0,1,0,0V111a22.81,22.81,0,0,1-22.81,22.81h0a0,0,0,0,1,0,0V111.83A22.81,22.81,0,0,1,162.65,89Z" transform="translate(302.48 222.78) rotate(-180)"/><rect x="50.65" y="128.32" width="39" height="14" rx="7"/><rect x="54.65" y="135.32" width="7" height="5" rx="2.5" transform="translate(-79.68 195.97) rotate(-90)"/><rect x="75.65" y="135.32" width="7" height="5" rx="2.5" transform="translate(-58.68 216.97) rotate(-90)"/><path d="M103.3,151.32A20.2,20.2,0,0,1,99.64,160a13.91,13.91,0,0,1-5.21,4.33,10.66,10.66,0,0,1-4.49,1H62.37a21.69,21.69,0,0,1-20.3-14Z"/><path d="M85.65,143.32h0a8,8,0,0,1,8,8v0a0,0,0,0,1,0,0h-8a0,0,0,0,1,0,0v-8A0,0,0,0,1,85.65,143.32Z"/><path d="M46.65,143.32h8a0,0,0,0,1,0,0v0a8,8,0,0,1-8,8h0a0,0,0,0,1,0,0v-8A0,0,0,0,1,46.65,143.32Z" transform="translate(101.29 294.65) rotate(-180)"/><rect x="93.65" y="112.32" width="9" height="15" rx="4.5"/><rect x="43.65" y="112.32" width="9" height="15" rx="4.5"/><circle cx="52.15" cy="114.82" r="2.5"/><circle cx="102.15" cy="114.82" r="2.5"/><path d="M172.81,88.63a6.45,6.45,0,0,0-4.56-3.43,8.37,8.37,0,0,0-2.6-.15v3c.25,0,.5,0,.75,0a6,6,0,0,1,1.2.12A3.23,3.23,0,0,1,170,93a6.43,6.43,0,0,1-3.07,2.9,7,7,0,0,1-1.23.46,5.94,5.94,0,0,1-3,.13h0a3.49,3.49,0,0,1-2.46-1.8,1.74,1.74,0,0,1-.14-.38H157a5.68,5.68,0,0,0,.51,1.69,6.45,6.45,0,0,0,4.56,3.43c.2,0,.4.08.6.1a8.66,8.66,0,0,0,1.25.09,9.43,9.43,0,0,0,1.75-.17,10.48,10.48,0,0,0,2.54-.83,9.56,9.56,0,0,0,4.45-4.29A6.43,6.43,0,0,0,172.81,88.63Z"/><rect class="cls-5" x="102.65" y="132.32" width="11" height="5" rx="2.5"/><path class="cls-5" d="M45.65,133.82a2.49,2.49,0,0,1-2.5,2.5h-2.5v-5h2.5A2.5,2.5,0,0,1,45.65,133.82Z"/><circle cx="65.15" cy="83.82" r="1.5"/><circle cx="81.15" cy="85.82" r="1.5"/><circle cx="77.15" cy="75.82" r="1.5"/><path d="M177.65,168.32c-2,5.29-2.5,4.44-7,14-.21.45-.41.87-.59,1.27-1.94,4.2-2.61,6.17-5,12.12-.87,2.22-2,5-3.45,8.61-5,12.29-5.88,13.63-8,20a101.26,101.26,0,0,0-4,14c0,.17-.06.34-.1.5-.57,3.06-.81,5.36-1.07,7.52-.13,1.22-.27,2.41-.46,3.66H135.36c.09-.56.19-1.12.29-1.68,1.76-9.56-2-30-2-30-2.89-15.73-.57-29,1-38A104.19,104.19,0,0,1,137,170.1a89.2,89.2,0,0,1,3.41-10,64.92,64.92,0,0,1,8.29-14.81,57.5,57.5,0,0,1,7.75-8.84c3-2.58,6.36-4.35,10.25-4.16,5.9.29,10.71,5,13,9C184.56,150,180.63,160.4,177.65,168.32Z"/><path d="M158.47,250H136.85a14.57,14.57,0,0,1,3.28-2.06l.1,0a15.54,15.54,0,0,1,1.52-.61,17.79,17.79,0,0,1,4.75-.93c.38,0,.76,0,1.15,0l.83,0a18.15,18.15,0,0,1,5.66,1.15A15.51,15.51,0,0,1,158.47,250Z"/></g><path class="cls-6" d="M181,219.12v20.54A18.7,18.7,0,0,1,177.91,250H29.09A18.7,18.7,0,0,1,26,239.66V219.12a64.1,64.1,0,0,1,11.94-37.46,61.8,61.8,0,0,1,20-18c1.24-.7,2.52-1.36,3.82-2A59.6,59.6,0,0,1,87.15,156h32.7a59,59,0,0,1,10.87,1,57.48,57.48,0,0,1,7.87,2l.13,0c.84.27,1.66.57,2.47.88l.44.18c1.3.5,2.57,1.06,3.82,1.65a61.86,61.86,0,0,1,22.64,18.54c.8,1.06,1.58,2.15,2.31,3.27s1.59,2.5,2.32,3.8A64.29,64.29,0,0,1,181,219.12Z"/><path class="cls-3" d="M167.67,180.32c-1.3,3-2.21,5.62-4.73,11.93-.66,1.66-1.44,3.58-2.36,5.84-5,12.29-5.88,13.64-8,20a99.88,99.88,0,0,0-4,14c-.59,3.07-.87,5.38-1.1,7.53s-.47,4.25-1,6.74c-.23,1.11-.52,2.3-.89,3.64h-12.4c.11-.57.24-1.2.37-1.91.37-2,.63-4,1-6,1.75-9.56-2-30-2-30-2.89-15.73-.57-29,1-38,.3-1.74.64-3.41,1-5a97.49,97.49,0,0,1,2.78-10c.86.27,1.71.57,2.55.88l.45.18c1.34.5,2.65,1.06,3.94,1.65A63.43,63.43,0,0,1,167.67,180.32Z"/><path class="cls-7" d="M149,118.5v23.78a21.24,21.24,0,0,1-.13,2.41h0a21,21,0,0,1-19,12.3h-.18A58.84,58.84,0,0,1,140.18,160,20.53,20.53,0,0,1,127.93,164H70.13a20.43,20.43,0,0,1-9.49-2.33A59.1,59.1,0,0,1,75.16,157H72.07a21.08,21.08,0,0,1-19.69-14A22.16,22.16,0,0,1,51,135.28V111.5a52.44,52.44,0,0,1,1.09-10.71h0C59.1,81.07,77.48,67,99,67a49.1,49.1,0,0,1,35.34,15.08A52.16,52.16,0,0,1,149,118.5Z"/><path class="cls-8" d="M178.34,61.52h.58a0,0,0,0,1,0,0V72.27a2.65,2.65,0,0,1-2.65,2.65h-.58a0,0,0,0,1,0,0V64.17A2.65,2.65,0,0,1,178.34,61.52Z" transform="translate(112.63 -110.41) rotate(49.05)"/><path class="cls-8" d="M177.64,59.06h.87a0,0,0,0,1,0,0v9.4a4,4,0,0,1-4,4h-.87a0,0,0,0,1,0,0v-9.4A4,4,0,0,1,177.64,59.06Z" transform="translate(352.15 131.51) rotate(-180)"/><path class="cls-8" d="M18.88,60.14H19a2.65,2.65,0,0,1,2.65,2.65v9a0,0,0,0,1,0,0h-.15a2.65,2.65,0,0,1-2.65-2.65v-9a0,0,0,0,1,0,0Z" transform="translate(83.38 93.86) rotate(130.95)"/><path class="cls-8" d="M19.23,58h.23a4,4,0,0,1,4,4v7.63a0,0,0,0,1,0,0h-.23a4,4,0,0,1-4-4V58A0,0,0,0,1,19.23,58Z"/><path class="cls-6" d="M24.71,66.46h1.84A27.58,27.58,0,0,1,54.13,94v28.28a4.42,4.42,0,0,1-4.42,4.42H47.87A27.58,27.58,0,0,1,20.29,99.16V70.88a4.42,4.42,0,0,1,4.42-4.42Z"/><path class="cls-8" d="M24.9,80.21h1.31A22.81,22.81,0,0,1,49,103v24.51a0,0,0,0,1,0,0H47.71A22.81,22.81,0,0,1,24.9,104.72V80.21a0,0,0,0,1,0,0Z"/><path class="cls-6" d="M153.54,112.46v25.15a23.13,23.13,0,0,1-2.25,9.95h0a23,23,0,0,1-20.71,13h-63a23,23,0,0,1-23-23V112.46a53.48,53.48,0,0,1,1.19-11.32h0a54.47,54.47,0,0,1,107.74,11.33Z"/><path class="cls-6" d="M170.54,68.58h1.84A4.42,4.42,0,0,1,176.81,73v28.28a27.58,27.58,0,0,1-27.58,27.58h-1.84a4.42,4.42,0,0,1-4.42-4.42V96.15A27.58,27.58,0,0,1,170.54,68.58Z" transform="translate(319.77 197.43) rotate(-180)"/><path class="cls-8" d="M172.32,79.89h1.31a0,0,0,0,1,0,0v24.51a22.81,22.81,0,0,1-22.81,22.81h-1.31a0,0,0,0,1,0,0V102.7A22.81,22.81,0,0,1,172.32,79.89Z" transform="translate(323.14 207.09) rotate(-180)"/><rect class="cls-8" x="55.19" y="121.45" width="41.24" height="14.81" rx="7"/><rect class="cls-9" x="59.42" y="128.86" width="7.4" height="5.29" rx="2.5" transform="translate(-68.38 194.62) rotate(-90)"/><rect class="cls-9" x="81.63" y="128.86" width="7.4" height="5.29" rx="2.5" transform="translate(-46.17 216.83) rotate(-90)"/><path class="cls-8" d="M110.87,145.78a21.41,21.41,0,0,1-3.87,9.16,14.78,14.78,0,0,1-5.51,4.58,11.25,11.25,0,0,1-4.75,1.06H67.58a23,23,0,0,1-21.47-14.8Z"/><path class="cls-10" d="M92.2,137.32h.46a8,8,0,0,1,8,8v.46a0,0,0,0,1,0,0H92.2a0,0,0,0,1,0,0v-8.46A0,0,0,0,1,92.2,137.32Z"/><path class="cls-10" d="M51,137.32h8.46a0,0,0,0,1,0,0v.46a8,8,0,0,1-8,8H51a0,0,0,0,1,0,0v-8.46A0,0,0,0,1,51,137.32Z" transform="translate(110.38 283.09) rotate(-180)"/><rect class="cls-11" x="100.66" y="104.53" width="9.52" height="15.86" rx="4.5"/><rect class="cls-11" x="47.79" y="104.53" width="9.52" height="15.86" rx="4.5"/><circle class="cls-12" cx="56.77" cy="107.18" r="2.64"/><circle class="cls-12" cx="109.65" cy="107.18" r="2.64"/><path class="cls-13" d="M184.38,79.48a6.83,6.83,0,0,0-4.83-3.63,8.94,8.94,0,0,0-2.74-.16v3.18a6.84,6.84,0,0,1,.79-.05,6.76,6.76,0,0,1,1.27.13,3.41,3.41,0,0,1,2.48,5.17,7.33,7.33,0,0,1-7.66,3.69A3.73,3.73,0,0,1,171,85.9a2.17,2.17,0,0,1-.15-.4h-3.24a5.72,5.72,0,0,0,.54,1.78A6.81,6.81,0,0,0,173,90.91a9,9,0,0,0,1.95.2,10.58,10.58,0,0,0,4.54-1.06,10.07,10.07,0,0,0,4.71-4.53A6.81,6.81,0,0,0,184.38,79.48Z"/><rect class="cls-14" x="110.18" y="125.68" width="11.63" height="5.29" rx="2.5"/><path class="cls-14" d="M49.9,127.27a2.67,2.67,0,0,1-.77,1.87,2.63,2.63,0,0,1-1.87.77H44.61v-5.29h2.65A2.65,2.65,0,0,1,49.9,127.27Z"/><circle class="cls-8" cx="70.52" cy="74.39" r="1.59"/><circle class="cls-8" cx="87.44" cy="76.51" r="1.59"/><circle class="cls-8" cx="83.21" cy="65.93" r="1.59"/><path class="cls-15" d="M185,160c-2,5.29-2.5,4.44-7,14-2.42,5.13-3,6.87-5.55,13.39-.87,2.22-2,5-3.45,8.61-.6,1.47-1.14,2.79-1.64,4-3.6,8.71-4.49,10.42-6.36,16a101.26,101.26,0,0,0-4,14c-.64,3.31-.9,5.74-1.17,8a55.82,55.82,0,0,1-1.69,9.47c0,.16-.09.34-.14.51-.19.69-.38,1.36-.57,2H141.2c.15-.73.33-1.6.55-2.71.08-.4.16-.83.25-1.29.16-.85.29-1.7.43-2.55.18-1.15.36-2.31.57-3.45a41.7,41.7,0,0,0,.44-8.16A166,166,0,0,0,141,210c-2.82-15.36-.68-28.37.88-37.35L142,172a104.19,104.19,0,0,1,2.3-10.22c3.91-14,9.46-21.83,11.7-24.78.13-.17.26-.35.4-.52,4.54-6,10.12-12.84,17.6-12.48,5.9.29,10.71,5,13,9C191.91,141.64,188,152.08,185,160Z"/><ellipse class="cls-8" cx="74" cy="191" rx="1" ry="6"/><ellipse class="cls-8" cx="88" cy="180" rx="1" ry="6"/><ellipse class="cls-8" cx="102" cy="191" rx="1" ry="6"/><path class="cls-16" d="M170,250H140a9.72,9.72,0,0,1,.23-2.1,10.58,10.58,0,0,1,2.2-4.45,14.1,14.1,0,0,1,5-3.83,17.07,17.07,0,0,1,2.07-.8A18.23,18.23,0,0,1,155,238l.83,0C163.73,238.36,170,243.59,170,250Z"/></g></g></svg>