<svg xmlns="http://www.w3.org/2000/svg" viewBox="0 0 200 253.76"><defs><style>.cls-1{fill:#8d4893;}.cls-2{opacity:0.33;}.cls-3{fill:#99314f;}.cls-4{fill:#3a3538;}.cls-5{fill:#0a0809;opacity:0.28;}.cls-6{fill:#e8c4cf;}.cls-7{fill:#47383e;}.cls-8{fill:#5e1f37;}.cls-9{fill:#3a3738;opacity:0.44;}.cls-10{fill:#211f20;}.cls-11{fill:#4c484a;}.cls-12,.cls-14,.cls-15{fill:none;stroke-linecap:round;stroke-miterlimit:10;}.cls-12{stroke:#494346;stroke-width:6px;}.cls-13{fill:#a55b74;opacity:0.72;}.cls-14{stroke:#23191d;}.cls-14,.cls-15{stroke-width:2px;}.cls-15{stroke:#7f285c;}.cls-16{fill:#9b7250;}.cls-17{fill:#f0f2ce;}</style></defs><g id="Layer_2" data-name="Layer 2"><g id="Layer_1-2" data-name="Layer 1"><rect class="cls-1" y="3.76" width="200" height="250" rx="12.57"/><g class="cls-2"><path d="M151.07,148.15v64.16a10.44,10.44,0,0,1-10.45,10.45H48a10.46,10.46,0,0,1-10.46-10.45V148.15c0-.92,0-1.84.09-2.75,0-.51.07-1,.11-1.52,0-.35.07-.71.11-1,.07-.67.16-1.34.27-2v0c0-.34.11-.68.17-1s.08-.44.13-.66.12-.65.2-1a1.53,1.53,0,0,1,.08-.37c0-.28.12-.56.19-.84.11-.49.24-1,.37-1.44s.28-1,.43-1.48a0,0,0,0,0,0,0q.24-.77.51-1.53c.15-.42.3-.83.46-1.24,0-.1.07-.19.1-.28l.45-1.11c.12-.28.24-.56.37-.84s.3-.68.46-1c.45-1,.94-1.92,1.46-2.85.26-.47.53-.93.81-1.39s.56-.91.85-1.36l.89-1.32c.37-.53.75-1,1.15-1.57.15-.2.29-.4.45-.59l.1-.14.54-.67c.22-.27.45-.53.67-.79s.63-.73,1-1.08c.8-.88,1.64-1.72,2.5-2.53.6-.57,1.22-1.13,1.85-1.67l1.17-1,1-.77.93-.68c.42-.3.84-.6,1.27-.88l.45-.31.49-.31h0c.5-.32,1-.62,1.5-.92s1-.55,1.45-.81,1-.52,1.48-.76,1-.49,1.5-.71,1-.45,1.54-.66.87-.35,1.32-.52l.55-.2.95-.33.68-.22,1.12-.34a.59.59,0,0,1,.19,0l1.57-.43h0l1.32-.31a.27.27,0,0,1,.12,0q.67-.15,1.35-.27c.39-.08.78-.15,1.18-.21l.63-.09q.42-.08.84-.12l.59-.07.86-.1c.39,0,.79-.07,1.19-.09l.23,0c.52,0,1-.06,1.57-.08s1.09,0,1.63,0h18.68c1.66,0,3.29.09,4.91.25.4,0,.81.09,1.21.15l.43.05q.67.09,1.35.21l.22,0,.73.13,1.21.25c.53.11,1.06.24,1.58.37a.2.2,0,0,1,.11,0c.46.11.91.24,1.36.37l.14,0h0l.2.06,1.19.37c.39.12.79.26,1.18.4s.65.23,1,.36a46.81,46.81,0,0,1,7.31,3.51h0l1,.61.28.18h0l1.42.94.46.33c.55.38,1.1.79,1.64,1.2l.4.32c.23.17.45.35.67.54l.69.58a5.58,5.58,0,0,1,.46.39c.34.3.68.6,1,.91s.7.65,1,1,.65.65,1,1l.93,1,.07.08c.32.35.63.71.95,1.08l.27.33c.23.27.45.54.67.82l.18.22.71.93c.2.26.4.53.59.8s.17.24.25.37a.83.83,0,0,1,.12.16l.49.72q.38.54.72,1.11c.16.24.31.49.45.73a.22.22,0,0,1,.05.08c.1.16.2.32.29.49.52.87,1,1.77,1.47,2.69.24.47.47,1,.69,1.44s.31.68.46,1l.27.65c0,.09.08.18.11.27.19.45.36.9.53,1.35l.11.29.21.6c.11.32.22.63.32.95s.17.52.25.79c.16.51.31,1,.44,1.54.1.37.2.74.29,1.12.19.75.35,1.5.49,2.26,0,.18.07.35.1.53.07.36.13.73.18,1.1h0a.88.88,0,0,1,0,.17,44.92,44.92,0,0,1,.47,4.52C151,146.37,151.07,147.26,151.07,148.15Z"/><path d="M160.7,253.76H28.93a194.3,194.3,0,0,1,11.54-34.22A187.17,187.17,0,0,1,60,184.74c1.56-2.14,3.15-4.18,4.75-6.08,8.65-10.3,17.73-16.91,26-16.91h6.82c8.07,0,17,6.49,25.69,16.65q2.31,2.7,4.57,5.72a184.92,184.92,0,0,1,16.81,27.65q1.89,3.75,3.63,7.58c2,4.48,3.95,9,5.67,13.53A190.87,190.87,0,0,1,160.7,253.76Z"/><path d="M174.72,121.54c0,5.59-9.69,10.65-25.29,14.26-2.65.62-5.48,1.19-8.47,1.72a255.59,255.59,0,0,1-27.44,3.18c-7,.46-14.42.71-22,.71-6.09,0-12-.16-17.75-.45-9.8-.51-18.95-1.43-27.13-2.68-2.67-.41-5.24-.86-7.69-1.34-13.35-2.59-23.25-6.16-27.84-10.25-1.85-1.64-2.83-3.37-2.83-5.15,0-9.49,27.91-17.43,65.21-19.39h0c5.8-.31,11.83-.47,18-.47,8.87,0,17.41.33,25.43.94h0c32.87,2.52,56.85,9.77,57.78,18.4h0A4.36,4.36,0,0,1,174.72,121.54Z"/><path d="M136.69,109.81a1.62,1.62,0,0,1-1.48,2.29L91.86,112l-43.36-.1A1.61,1.61,0,0,1,47,109.62L69,62.33,90.6,15.93a1.62,1.62,0,0,1,2.94,0l21.37,46.49Z"/><path d="M162,163.19h0a2.5,2.5,0,0,1,2.5,2.5v53.47a0,0,0,0,1,0,0h-5a0,0,0,0,1,0,0V165.69a2.5,2.5,0,0,1,2.5-2.5Z" transform="translate(65.14 -39.95) rotate(17.54)"/><rect x="139.23" y="211.76" width="23" height="20" rx="9.11" transform="translate(191.17 -43.31) rotate(42.88)"/></g><path class="cls-3" d="M159.84,133.15v64.16a10.44,10.44,0,0,1-10.45,10.45H56.78a10.46,10.46,0,0,1-10.46-10.45V133.15c0-.92,0-1.84.09-2.75,0-.51.07-1,.11-1.52,0-.35.07-.71.11-1,.07-.67.16-1.34.27-2v0c.05-.34.11-.68.17-1s.08-.44.13-.66.12-.65.2-1a1.53,1.53,0,0,1,.08-.37c.05-.28.12-.56.19-.84.11-.49.24-1,.37-1.44s.28-1,.43-1.48a0,0,0,0,0,0,0q.24-.76.51-1.53c.15-.42.3-.83.46-1.24,0-.1.07-.19.1-.28l.45-1.11c.12-.28.24-.56.37-.84s.3-.68.46-1c.45-1,.94-1.92,1.46-2.85.26-.47.53-.93.81-1.39s.56-.91.85-1.36l.89-1.32c.37-.53.75-1,1.15-1.57.15-.2.29-.4.45-.59l.1-.14.54-.67c.22-.27.45-.53.67-.79s.63-.73,1-1.08c.8-.88,1.64-1.72,2.5-2.53.6-.57,1.22-1.13,1.85-1.67l1.17-1,1-.77.93-.68c.42-.3.84-.6,1.27-.88l.45-.31.49-.31h0c.5-.32,1-.62,1.5-.92s1-.55,1.45-.81,1-.52,1.48-.76,1-.49,1.5-.71,1-.45,1.54-.66.87-.35,1.32-.52l.55-.2,1-.33.68-.22,1.12-.34a.59.59,0,0,1,.19,0l1.57-.43h0l1.32-.31a.27.27,0,0,1,.12,0q.67-.15,1.35-.27c.39-.08.78-.15,1.18-.21l.63-.09q.42-.08.84-.12l.59-.07.86-.1c.39,0,.79-.07,1.19-.09l.23,0c.52,0,1-.06,1.57-.08s1.09,0,1.63,0h18.68c1.66,0,3.29.09,4.91.25.4,0,.81.09,1.21.15l.43.05q.68.09,1.35.21l.22,0,.73.13,1.21.25c.53.11,1.06.24,1.58.37a.2.2,0,0,1,.11,0c.46.11.91.24,1.36.37l.14,0h0l.2.06,1.19.37c.39.12.79.26,1.18.4s.65.23,1,.36a46.81,46.81,0,0,1,7.31,3.51h0l1,.61.28.18h0l1.42.94.46.33c.55.38,1.1.79,1.64,1.2l.4.32c.23.17.45.35.67.54l.69.58a5.58,5.58,0,0,1,.46.39c.34.3.68.6,1,.91s.7.65,1,1l1,1,.93,1,.07.08c.32.35.63.71,1,1.08l.27.33c.23.27.45.54.67.82l.18.22.71.93c.2.26.4.53.59.8s.17.24.25.37a.83.83,0,0,1,.12.16l.49.72q.38.54.72,1.11c.16.24.31.49.45.73a.22.22,0,0,1,.05.08c.1.16.2.32.29.49.52.87,1,1.77,1.47,2.69.24.47.47,1,.69,1.44s.31.68.46,1l.27.65c0,.09.08.18.11.27.19.45.36.9.53,1.35l.11.29.21.6c.11.32.22.63.32,1s.17.52.25.79c.16.51.31,1,.44,1.54s.2.74.29,1.12c.19.75.35,1.5.49,2.26,0,.18.07.35.1.53.07.36.13.73.18,1.1h0a.88.88,0,0,1,0,.17,44.92,44.92,0,0,1,.47,4.52C159.81,131.37,159.84,132.26,159.84,133.15Z"/><path class="cls-4" d="M172.39,253.76H35.28c2.12-24.82,16.53-60.76,33.53-84,1.56-2.14,3.15-4.18,4.75-6.08,8.65-10.3,17.73-16.91,26-16.91h6.82c8.07,0,17,6.49,25.69,16.65q2.31,2.7,4.57,5.72C154,192.21,169.22,228.33,172.39,253.76Z"/><path class="cls-5" d="M150.38,129.54v1.3a38.13,38.13,0,0,1-18.28,32.57q2.31,2.7,4.57,5.72a38,38,0,0,1-22.88,7.63H90.85a38,38,0,0,1-22-7c1.56-2.14,3.15-4.18,4.75-6.08a38.11,38.11,0,0,1-18.72-32.83v-1.3A38.12,38.12,0,0,1,78.62,94.21h0a38,38,0,0,1,12.22-2h22.94A38.13,38.13,0,0,1,130.42,96l.09,0A38.12,38.12,0,0,1,150.38,129.54Z"/><path class="cls-6" d="M150.38,129.54v1.3A38.12,38.12,0,0,1,112.24,169H93a38.13,38.13,0,0,1-38.13-38.14v-1.3A38.12,38.12,0,0,1,78.62,94.21h0A37.78,37.78,0,0,1,93,91.41h19.27A38,38,0,0,1,130.42,96l.09,0A38.12,38.12,0,0,1,150.38,129.54Z"/><path class="cls-3" d="M104.65,109.66,102.91,111,85.54,123.88c-1,.74-2,1.44-3.05,2.08a43.43,43.43,0,0,1-36.08,4.44c0-.51.07-1,.11-1.52,0-.35.07-.71.11-1,.07-.67.16-1.34.27-2v0c.05-.34.11-.68.17-1s.08-.44.13-.66.12-.65.2-1a1.53,1.53,0,0,1,.08-.37c.05-.28.12-.56.19-.84.11-.49.24-1,.37-1.44s.28-1,.43-1.48a0,0,0,0,0,0,0q.24-.76.51-1.53c.14-.41.29-.83.45-1.24,0-.09.07-.19.11-.28l.45-1.11c.12-.28.24-.56.37-.84s.3-.68.46-1c.45-1,.94-1.92,1.46-2.85.26-.47.53-.93.81-1.39s.56-.91.85-1.36l.89-1.32.71-1c.29-.39.58-.78.89-1.17s.42-.54.64-.81.45-.53.67-.79.63-.73,1-1.08l.82-.87c.37-.39.75-.77,1.14-1.15.18-.18.35-.35.54-.51a46.46,46.46,0,0,1,4-3.4l.93-.68c.42-.3.84-.6,1.27-.88s.63-.42,1-.62c.5-.32,1-.62,1.5-.92a43.28,43.28,0,0,1,5,.29,42,42,0,0,1,5.66,1,43.13,43.13,0,0,1,22,13.48c.42.47.82,1,1.22,1.46S104.34,109.25,104.65,109.66Z"/><path class="cls-3" d="M159.76,130.5a43.64,43.64,0,0,1-29.24-.58h0a43.19,43.19,0,0,1-8.22-4.22c-.94-.61-1.87-1.26-2.77-2L102.91,111l-2.27-1.74c.2-.26.41-.52.62-.77.39-.5.8-1,1.23-1.46a43,43,0,0,1,22.28-13.47,43.75,43.75,0,0,1,6.43-1.05,45.12,45.12,0,0,1,5.33-.14h0l1,.61.28.18h0l1.42.94.46.33c.55.38,1.1.79,1.64,1.2l.4.32c.23.17.45.35.67.54l.69.58a5.58,5.58,0,0,1,.46.39c.34.3.68.6,1,.91s.7.65,1,1l1,1,.93,1,.07.08c.32.35.63.71,1,1.08l.27.33c.23.27.45.54.67.82l.18.22.71.93c.2.26.4.53.59.8s.17.24.25.37a.83.83,0,0,1,.12.16l.49.72q.38.54.72,1.11c.16.24.31.48.45.73a.22.22,0,0,1,.05.08c.1.16.2.32.29.49.52.87,1,1.77,1.47,2.69.24.47.47,1,.69,1.44s.31.68.46,1l.27.65c0,.09.08.18.11.27.19.45.36.9.53,1.35l.11.29.21.6c.11.32.22.63.32,1s.17.52.25.79c.16.51.31,1,.44,1.54s.2.74.29,1.12c.19.75.35,1.5.49,2.26,0,.18.07.35.1.53.07.36.13.73.18,1.1a.55.55,0,0,1,0,.17A44.92,44.92,0,0,1,159.76,130.5Z"/><path class="cls-7" d="M150.38,104.75v3.69H54.84v-2.38a47.55,47.55,0,0,1,15-13.87,47.08,47.08,0,0,1,23.88-6.45h18.68a47.22,47.22,0,0,1,24.11,6.58h0A47.84,47.84,0,0,1,150.38,104.75Z"/><path class="cls-8" d="M129.82,132.26h0a1.89,1.89,0,0,0,1.1-1.24c.1-.69-.46-1.25-1-1.82a6.87,6.87,0,0,0-2-1.3,6.1,6.1,0,0,0-2.87-.77,3.6,3.6,0,0,0-2.54.86c-.87.83-1.29,2.32-.77,2.86s1.31-.12,3.06.06a7.16,7.16,0,0,1,2.15.58"/><path class="cls-8" d="M74.12,131.83h0c-.17-.08-1-.49-1.11-1.24s.47-1.24,1-1.82a7.08,7.08,0,0,1,2-1.29,6,6,0,0,1,2.87-.78,3.66,3.66,0,0,1,2.54.86c.86.83,1.28,2.32.77,2.87s-1.32-.12-3.06,0a7.07,7.07,0,0,0-2.15.58"/><path class="cls-9" d="M158.2,120.8c.1.37.2.74.29,1.12.19.75.35,1.5.49,2.26,0,.18.07.35.1.53.07.36.13.73.18,1.1-2.8.62-5.79,1.18-8.93,1.7-6.07,1-12.72,1.82-19.81,2.41h0c-8.6.72-17.85,1.11-27.47,1.11-10,0-19.61-.42-28.49-1.2-7-.61-13.64-1.44-19.65-2.46-2.8-.47-5.47-1-8-1.54v0c.05-.34.11-.68.17-1s.08-.44.13-.66.12-.65.2-1a1.53,1.53,0,0,1,.08-.37c.05-.28.12-.56.19-.84-13.35-2.59-23.25-6.16-27.84-10.25a4.58,4.58,0,0,1,0-.53c0-8,19.9-14.92,48.55-18.06h0c2.1-.23,4.26-.44,6.46-.63,4.73-.41,9.68-.72,14.78-.91h0q2.26-.09,4.56-.15c2.91-.07,5.87-.11,8.86-.11s5.95,0,8.86.11l2.92.09h.07c5.64.19,11.1.52,16.31,1,2.25.2,4.46.41,6.62.65h0c22.24,2.45,39.19,7.16,45.63,12.91h0a4.36,4.36,0,0,1,0,.51C183.49,112.13,173.8,117.19,158.2,120.8Z"/><path class="cls-10" d="M183.49,106.54c0,5.59-9.69,10.65-25.29,14.26-2.65.62-5.48,1.19-8.47,1.72a255.59,255.59,0,0,1-27.44,3.18c-7,.46-14.42.71-22.05.71-6.09,0-12-.16-17.75-.45-9.8-.51-18.95-1.43-27.13-2.68-2.67-.41-5.24-.86-7.69-1.34-13.35-2.59-23.25-6.16-27.84-10.25C18,110.05,17,108.32,17,106.54c0-9.49,27.91-17.43,65.21-19.39h0c5.8-.31,11.83-.47,18-.47,8.87,0,17.41.33,25.43.94h0c32.87,2.52,56.85,9.77,57.78,18.4h0A4.36,4.36,0,0,1,183.49,106.54Z"/><path class="cls-10" d="M145.46,94.82A1.62,1.62,0,0,1,144,97.11L100.63,97l-43.35-.09a1.62,1.62,0,0,1-1.46-2.3l22-47.28L99.38.93a1.62,1.62,0,0,1,2.93,0l21.37,46.5Z"/><rect class="cls-11" x="79.05" y="40.51" width="7.8" height="28" rx="3.9" transform="translate(29.98 -29.43) rotate(24.43)"/><circle class="cls-11" cx="74" cy="73.76" r="4"/><path class="cls-12" d="M28.94,110A41.61,41.61,0,0,0,39,113.89c13,2.85,7.71,2,19,3.78,4.58.74,13,1.85,13,1.85"/><rect class="cls-13" x="120" y="143.76" width="12" height="5.18" rx="2.59"/><path class="cls-14" d="M114,137.63a9.86,9.86,0,0,1,4.5-2.2,9.44,9.44,0,0,1,7.5,2.2"/><rect class="cls-13" x="73.75" y="143.83" width="12" height="5.18" rx="2.59"/><path class="cls-15" d="M98,153.76a10.47,10.47,0,0,0,4,1,10.6,10.6,0,0,0,5-1"/><path class="cls-14" d="M78.15,137.58a10,10,0,0,1,4.5-2.2,9.46,9.46,0,0,1,7.5,2.2"/><path class="cls-16" d="M170.82,148.19h0a2.5,2.5,0,0,1,2.5,2.5v53.47a0,0,0,0,1,0,0h-5a0,0,0,0,1,0,0V150.69a2.5,2.5,0,0,1,2.5-2.5Z" transform="translate(61.03 -43.29) rotate(17.54)"/><rect class="cls-6" x="148" y="196.76" width="23" height="20" rx="9.11" transform="translate(183.32 -53.28) rotate(42.88)"/><polygon class="cls-17" points="181.95 141.86 178.92 137.56 174.04 135.56 178.35 132.53 180.34 127.66 183.37 131.97 188.25 133.96 183.94 136.99 181.95 141.86"/><polygon class="cls-17" points="193.45 124.96 191.46 122.12 188.25 120.8 191.09 118.81 192.4 115.59 194.4 118.43 197.61 119.75 194.77 121.74 193.45 124.96"/><polygon class="cls-17" points="179.8 111.03 177.81 108.19 174.59 106.88 177.43 104.88 178.75 101.67 180.74 104.51 183.96 105.82 181.12 107.82 179.8 111.03"/></g></g></svg>